<!--?xml version="1.0" encoding="utf-8"?-->
<!-- Generator: Adobe Illustrator 18.1.1, SVG Export Plug-In . SVG Version: 6.00 Build 0)  -->

<svg version="1.1" id="_x32_" xmlns="http://www.w3.org/2000/svg" xmlns:xlink="http://www.w3.org/1999/xlink" x="0px" y="0px" viewBox="0 0 512 512" style="width: 512px; height: 512px; opacity: 1;" xml:space="preserve">
<style type="text/css">
	.st0{fill:#4B4B4B;}
</style>
<g>
	<rect x="87.239" y="172.419" class="st0" width="337.518" height="91.86" style="fill: rgb(220, 159, 149);"></rect>
	<rect x="293.184" y="307.184" class="st0" width="131.573" height="112.986" style="fill: rgb(220, 159, 149);"></rect>
	<rect x="87.239" y="308.893" class="st0" width="154.454" height="17.162" style="fill: rgb(220, 159, 149);"></rect>
	<rect x="87.239" y="401.299" class="st0" width="154.454" height="17.162" style="fill: rgb(220, 159, 149);"></rect>
	<rect x="87.239" y="355.101" class="st0" width="154.454" height="17.162" style="fill: rgb(220, 159, 149);"></rect>
	<path class="st0" d="M416.427,0.002H95.573C42.784,0.011,0.009,42.79,0,95.575v303.688c0.022,62.263,50.46,112.718,112.735,112.735
		h286.53c62.272-0.017,112.718-50.464,112.735-112.735V95.575C511.992,42.79,469.212,0.011,416.427,0.002z M464.804,399.263
		c-0.008,18.15-7.307,34.424-19.198,46.341c-11.916,11.891-28.19,19.19-46.341,19.198h-286.53
		c-18.151-0.009-34.429-7.308-46.346-19.198c-11.886-11.916-19.185-28.19-19.194-46.341V118.695h417.609V399.263z" style="fill: rgb(220, 159, 149);"></path>
</g>
</svg>
