<!--?xml version="1.0" encoding="utf-8"?-->
<!-- Generator: Adobe Illustrator 22.1.0, SVG Export Plug-In . SVG Version: 6.00 Build 0)  -->
<svg version="1.1" id="_x31_9" xmlns="http://www.w3.org/2000/svg" xmlns:xlink="http://www.w3.org/1999/xlink" x="0px" y="0px" viewBox="0 0 720 531" style="enable-background:new 0 0 720 531;" xml:space="preserve">
<style type="text/css">
	.st0{fill:#FFFFFF;}
	.st1{fill:#566889;}
	.st2{fill:#FFB476;}
	.st3{fill:#FFBE80;}
	.st4{fill:#47597A;}
</style>
<g>
	<rect x="190.587" y="231.987" class="st0" width="93.86" height="249.774" style="opacity: 1; stroke: none; stroke-width: 7px;"></rect>
	<rect y="217.48" class="st1" width="190.616" height="295.641" style="opacity: 1; stroke: none; stroke-width: 7px; fill: rgb(220, 159, 149);"></rect>
	<path class="st2" d="M626.674,487.401c-0.249-7.059-4.511-13.153-10.491-18.017l-0.007-0.014c-1.575-1.272-3.271-2.477-5.046-3.574
		c4.739,0.937,8.98,1.661,12.515,2.181c4.476,0.659,7.825,0.98,9.635,0.926c12.643-0.403,28.928-24.645,27.773-40.88
		c-0.399-5.438-2.943-10.273-6.756-14.439c-5.024-5.466-12.251-9.732-19.67-12.707l0.014-0.018c0,0-10.149-2.159-7.832-3.343
		c1.468-0.192,12.08,1.49,14.923,1.735c0,0,12.123-0.189,20.375-0.713c3.257-0.203,6.471-0.698,9.129-1.7
		c9.422-3.546,29.084-34.06,26.12-46.46c-2.494-10.395-12.151-15.686-21.174-19.203c-1.746-0.681-3.449-1.294-5.089-1.86
		c-7.661-2.665-14.503-3.389-23.44-4.148c37.045,2.883,48.277-2.737,53.885-11.713c6.97-11.154,16.919-48.684,5.68-58.444
		c-9.044-7.857-76.071-23.562-113.565-34.876c-7.718-2.331-15.608-4.052-23.668-3.695h-64.055h-1.44
		c1.311-22.874-5.317-92.158-5.317-92.158l3.984-17.372c5.096-22.261,2.972-45.783-7.162-66.248
		c-5.566-11.236-12.956-20.536-21.673-24.235l-17.147-7.273c-11.816-5.014-24.915,3.87-24.552,16.705
		c0.634,22.717,5.445,45.434,3.093,67.688c-2.302,21.798-3.107,57.618-9.835,80.94c-7.041,24.42-21.487,46.047-41.399,61.844
		l-21.373,16.958c-18.009,7.487-59.337,4.868-78.665,3.995v199.942c20.611-1.001,51.812-3.186,70.854,5.274l72.365,32.114
		c11.731,5.203,24.088,8.677,36.717,10.334l67.305,8.809c5.88,0.773,11.709,0.631,17.382-0.257
		c11.759,3.018,25.364,5.573,35.598,7.312c2.694,0.577,5.153,1.062,7.312,1.44c3.742,0.656,6.585,1.005,8.246,1.019
		C611.658,523.392,627.18,502.107,626.674,487.401z" style="opacity: 1; stroke: none; stroke-width: 7px; fill: rgb(255, 198, 191);"></path>
	<path class="st3" d="M435.719,38.819h2.537c13.562,0,24.552,10.993,24.552,24.552v23.195c0,3.856-3.129,6.981-6.984,6.981h-20.105
		l-2.48-45.972v-8.755H435.719z" style="opacity: 1; stroke: none; stroke-width: 7px; fill: rgb(245, 221, 223);"></path>
	<polygon class="st4" points="460.196,2.037 460.21,2.042 460.214,2.044 	" style="opacity: 1; stroke: none; stroke-width: 7px; fill: rgb(102, 75, 79);"></polygon>
	<path class="st4" d="M704.865,348.529c0.004,0.007,0,0.014,0.004,0.021c0,0.009,0.004,0.016,0.007,0.024L704.865,348.529z" style="opacity: 1; stroke: none; stroke-width: 7px; fill: rgb(102, 75, 79);"></path>
	<path class="st4" d="M613.672,526.111c5.691-4.16,10.583-10.071,14.378-16.64c3.72-6.641,6.346-13.865,6.346-21.383v-0.95
		c0-0.072,0-0.072,0-0.072v-0.219c-0.217-3.722-1.165-7.152-2.626-10.29c0.363,0,0.802,0.073,1.094,0.073h0.659
		c5.399-0.219,9.995-2.554,13.936-5.62c5.987-4.597,11.022-11.093,14.888-18.245c3.795-7.225,6.425-15.179,6.496-23.061
		c0-0.657,0-1.387-0.071-2.263c0-0.073,0-0.073,0-0.146c-0.584-7.444-4.162-13.938-8.759-18.901v-0.073
		c-0.656-0.657-1.386-1.168-2.045-1.824c1.607-0.073,3.214-0.146,4.6-0.218c3.72-0.292,7.59-0.804,11.385-2.19
		c2.259-0.877,4.084-2.117,5.837-3.503c2.993-2.482,5.837-5.62,8.684-9.196c4.233-5.473,8.246-11.897,11.385-18.537
		c3.139-6.568,5.473-13.064,5.545-19.631c0-1.533-0.143-3.065-0.51-4.672c-1.75-7.152-6.058-12.625-10.872-16.42
		c-0.877-0.729-1.824-1.313-2.701-1.898c0.292-0.145,0.656-0.218,1.019-0.364c7.298-2.7,12.629-7.225,15.764-12.334
		c1.532-2.48,2.918-5.473,4.305-8.903c4.016-10.216,7.59-24.448,7.59-37.146c0-4.086-0.363-8.028-1.457-11.896
		c-1.094-3.722-2.918-7.517-6.275-10.436c-2.409-1.971-4.818-3.139-7.882-4.526c-5.402-2.335-12.625-4.743-21.238-7.371
		c-25.614-7.881-62.979-17.149-87.282-24.52c-7.369-2.19-15.251-4.087-23.718-4.087c-0.731,0-1.461,0-2.188,0.073h-57.581
		c-0.221-14.377-1.532-34.227-2.772-51.232c-1.169-15.763-2.263-28.827-2.63-32.695l3.724-16.128
		c1.896-8.321,2.844-16.786,2.844-25.179c0-15.91-3.428-31.746-10.655-46.269c-2.99-6.058-6.492-11.75-10.726-16.567
		c-4.162-4.816-9.051-8.903-14.817-11.312l-17.147-7.298C456.986,0.657,453.559,0,450.273,0c-6.713,0-13.063,2.701-17.66,7.226
		c-4.668,4.452-7.736,10.874-7.736,18.099v0.73c0.584,19.121,3.795,37.366,3.795,54.516c0,4.087-0.217,8.175-0.656,12.188
		c-1.169,11.166-1.896,25.543-3.285,39.993c-1.24,14.378-3.136,28.827-6.275,39.628c-6.567,22.842-20.14,43.13-38.752,57.872
		l-20.432,16.201c-3.724,1.387-9.343,2.555-15.911,3.285c-7.006,0.73-15.034,0.949-23.059,0.949c-9.999,0-19.998-0.365-28.097-0.803
		v-25.616h-93.924v-14.451H0v15.399h182.884v280.168H0v15.473h198.281v-31.382h93.924V464.59c6.639-0.365,13.865-0.657,21.163-0.657
		c14.667-0.073,29.483,1.386,38.823,5.62l72.322,32.111c12.404,5.546,25.468,9.195,38.898,10.947l67.284,8.83
		c2.918,0.364,5.84,0.583,8.759,0.583c3.065,0,6.129-0.291,9.122-0.657c11.748,2.919,24.812,5.328,34.736,7.08
		c2.63,0.51,5.11,1.021,7.373,1.386c3.941,0.73,6.934,1.094,9.486,1.167h0.075C605.426,530.927,609.806,528.811,613.672,526.111z
		 M465.382,497.284c-11.895-1.533-23.501-4.817-34.593-9.707l-72.322-32.11c-13.281-5.839-29.555-6.934-45.098-7.007
		c-7.444,0-14.67,0.292-21.163,0.657V265.355c8.028,0.438,17.952,0.803,28.097,0.803c8.392,0,16.855-0.292,24.666-1.095
		c7.882-0.803,15.034-2.117,21.088-4.671c0.659-0.218,1.315-0.584,1.899-1.022l21.309-17.004
		c21.238-16.785,36.564-39.774,44.079-65.755c3.574-12.552,5.473-27.659,6.788-42.474c1.094-11.824,1.824-23.281,2.626-32.841
		h13.063c8.1,0,14.742-6.568,14.742-14.742V63.347c0-17.004-13.209-30.724-29.847-32.038c-0.15-1.898-0.292-3.795-0.367-5.693
		v-0.291c0-2.846,1.169-5.182,2.993-7.007c1.824-1.824,4.379-2.845,6.931-2.845c1.24,0,2.555,0.219,3.87,0.803l17.151,7.298
		c2.918,1.168,6.129,3.649,9.194,7.225c3.065,3.503,6.058,8.101,8.613,13.282c6.058,12.261,8.976,25.762,8.976,39.409
		c0,7.225-0.802,14.523-2.484,21.676l-3.941,17.368c-0.217,0.804-0.217,1.678-0.143,2.482c0,0,0.292,3.722,0.802,9.779
		c1.532,18.245,4.597,57.508,4.597,78.016c-0.146,0.291-0.363,0.51-0.51,0.802c-0.73,2.19-0.73,3.503-0.73,4.817
		c0,2.773,0.363,5.547,0.877,9.122c1.604,10.51,4.522,26.93,4.522,46.342c0,19.268-2.918,41.234-12.989,62.544
		c-9.999,21.236-27.075,42.036-56.266,59.259c-3.724,2.189-4.889,6.934-2.772,10.583c2.188,3.721,6.931,4.889,10.58,2.772
		c31.746-18.682,51.231-42.109,62.47-66.047c11.314-23.937,14.45-48.312,14.45-69.112c0-13.938-1.386-26.345-2.772-36.125
		c-0.73-4.889-1.386-9.122-1.896-12.479c0-0.146-0.075-0.292-0.075-0.438c0-0.219,0.075-0.51,0.075-0.657h58.525l1.753-0.073
		c6.129,0,12.625,1.387,19.267,3.43c18.975,5.693,45.098,12.48,67.576,18.755c11.239,3.139,21.601,6.204,29.483,8.831
		c3.941,1.387,7.298,2.627,9.707,3.649c1.24,0.584,2.263,1.022,2.993,1.46l0.802,0.437l0.146,0.146
		c0.363,0.291,1.023,1.168,1.604,3.065c0.513,1.824,0.877,4.524,0.877,7.589c0,6.422-1.386,14.596-3.357,21.748
		c-1.023,3.577-2.117,6.934-3.211,9.779c-1.094,2.774-2.263,5.109-3.065,6.35c-1.461,2.335-3.357,4.233-8.103,6.057
		c-4.743,1.824-12.333,3.138-23.935,3.138c-2.555,0-5.398-0.073-8.467-0.219c-0.656-0.219-1.24-0.292-1.896-0.657l-0.292,0.511
		c-9.924-0.511-22.04-1.824-36.706-4.014v0.073c-0.367,0-0.659-0.146-1.023-0.219c0,0-1.607,0-4.233-0.073
		c-4.012-0.146-10.291-0.437-16.566-0.948c-6.204-0.438-12.55-1.241-15.911-2.117c-3.649-0.876-5.619-2.117-6.567-3.284
		c-0.584-0.584-0.948-1.241-1.311-2.409c-0.367-1.094-0.659-2.7-0.659-4.889c0-2.263,0.292-5.182,1.023-8.758
		c0.877-4.306,1.896-7.298,2.918-9.341c1.607-3.139,2.993-4.379,5.619-5.985c2.409-1.386,6.129-2.773,10.947-4.452
		c5.181,0,24.302,0.291,39.7,0.291c4.818,0,9.343-0.073,12.917-0.146c1.753,0,3.357,0,4.672-0.073
		c1.315-0.072,2.263-0.145,3.357-0.218c4.012-0.583,6.86-4.159,6.642-8.174l3.211-3.43c1.971-2.044,1.971-5.327-0.146-7.298
		c-0.73-0.73-1.678-1.168-2.555-1.387c-1.678-0.291-3.428,0.219-4.672,1.533l-3.357,3.503c-0.363,0-0.73-0.146-1.165-0.073
		c0,0-0.877,0.073-1.971,0.073c-3.36,0.146-9.781,0.219-16.933,0.219h-1.896l-3.357-10.583c-0.877-2.7-3.795-4.232-6.496-3.358
		c-2.701,0.877-4.233,3.795-3.357,6.496l2.334,7.371c-5.035,0-10.07-0.073-14.375-0.073c-8.028-0.073-13.723-0.219-13.794-0.219
		c-0.877,0-1.824,0.219-2.701,0.51c-3.574,1.241-6.785,2.408-9.999,3.795c-4.743,1.971-9.486,4.817-13.206,9.56
		c-3.649,4.745-5.912,10.656-7.519,18.391c-0.802,4.379-1.311,8.248-1.311,11.824c0,3.43,0.435,6.641,1.386,9.633
		c0.51,1.678,1.311,3.212,2.188,4.671c-0.656,0.146-1.315,0.292-1.971,0.438c-2.117,0.51-4.233,1.167-6.275,2.043
		c-2.045,0.876-4.162,1.898-6.275,4.525c-3.506,4.671-7.155,9.998-10.074,15.691c-2.918,5.692-5.181,11.823-5.252,18.391
		c0,3.065,0.51,6.203,1.824,9.195c0.948,2.044,2.042,3.941,3.357,5.766c-2.117,0.511-4.087,1.095-5.912,1.971
		c-4.743,2.19-8.976,5.327-12.625,8.612c-3.578,3.357-6.496,6.568-8.392,10.29c-1.315,2.845-1.39,5.035-1.461,7.371
		c0,3.284,0.584,6.86,1.315,10.655c1.24,5.693,3.136,11.75,5.473,16.858c0.363,0.803,0.73,1.533,1.165,2.263
		c-3.357,1.022-7.077,2.262-11.381,4.013c-7.009,2.774-12.336,7.006-15.764,12.115c-3.357,5.182-4.672,10.947-4.672,16.274
		c0,8.612,3.065,16.42,6.788,22.55c1.678,2.555,3.649,4.453,5.983,6.496c4.016,3.43,9.197,6.86,14.813,10.289
		c1.682,1.095,3.506,2.117,5.256,3.138L465.382,497.284z M198.281,474.003V239.739h78.452v234.264H198.281z M455.091,85.824h-11.093
		c0.075-1.751,0.075-3.503,0.075-5.254c0-11.457-1.169-22.624-2.191-33.57c7.519,1.606,13.209,8.32,13.209,16.347V85.824z
		 M659.722,335.124c3.649,0.364,6.129,0.51,8.83,1.459c1.607,0.583,3.211,1.167,4.818,1.824c4.159,1.605,8.174,3.576,11.018,5.839
		c2.918,2.335,4.672,4.743,5.473,7.954l0.075,1.023c0,1.751-0.731,5.327-2.338,9.195c-2.334,5.911-6.346,12.771-10.362,18.172
		c-1.971,2.626-4.012,4.962-5.691,6.641c-0.805,0.804-1.607,1.386-2.117,1.824l-0.73,0.438l-0.146,0.073v0.073
		c-1.532,0.584-4.158,1.021-6.934,1.167c-3.941,0.292-8.976,0.438-12.989,0.584c-3.139,0.073-5.62,0.073-6.567,0.146
		c-1.094-0.146-3.941-0.511-6.713-0.877c-1.532-0.219-3.139-0.437-4.454-0.584c-1.386-0.146-2.409-0.291-3.795-0.291l-1.24,0.073
		c-8.028-1.971-21.819-5.255-36.122-8.685c-11.093-2.554-22.478-5.255-31.675-7.298c-0.438-0.073-0.802-0.146-1.165-0.219
		c-0.513-0.364-1.169-0.803-1.824-1.314c-2.045-1.605-4.6-4.086-6.788-6.641c-2.188-2.482-4.012-5.254-4.672-6.933
		c-0.363-0.804-0.584-1.751-0.584-3.065c0-2.7,1.244-6.861,3.506-11.312c2.188-4.306,5.252-8.83,8.392-12.99
		c0.438-0.219,1.457-0.584,2.772-0.95c2.701-0.802,6.567-1.459,10.291-2.189c2.918-0.584,5.691-1.168,8.317-1.898
		c2.993,0.584,6.133,1.095,9.635,1.46c11.82,1.24,25.468,1.605,27.805,1.678c14.888,2.262,27.292,3.576,37.8,4.159
		C654.612,334.466,657.388,334.905,659.722,335.124z M594.405,398.177c9.414,2.263,18.173,4.379,24.523,5.912
		c1.457,0.365,2.772,0.657,3.941,0.948c0.217,0.073,0.363,0.219,0.581,0.292c1.244,0.73,2.263,1.095,3.285,1.387
		c2.117,0.73,4.233,1.241,5.399,1.459c6.496,2.7,12.7,6.495,16.495,10.656c2.918,3.284,4.451,6.421,4.743,9.779v1.095
		c0,2.772-0.731,6.421-2.117,10.143c-2.117,5.62-5.691,11.458-9.486,15.473c-1.824,2.044-3.795,3.649-5.402,4.597
		c-1.604,0.95-2.772,1.241-3.357,1.241h-0.146c-1.094,0-4.158-0.218-8.1-0.803c-3.357-0.511-7.515-1.24-12.116-2.117
		c-1.019-0.219-1.971-0.219-2.918,0c-8.246-3.576-20.871-8.903-33.788-14.377c-11.022-4.671-22.26-9.342-31.233-12.991
		c-4.087-1.678-7.665-3.065-10.583-4.233v-0.073c-0.292-0.073-0.513-0.146-0.877-0.218c-1.532-0.584-2.772-1.096-3.866-1.46
		c-0.659-0.219-1.244-0.437-1.753-0.583c-0.438-0.584-1.24-1.751-1.971-3.285c-1.457-3.065-3.065-7.443-4.158-11.677
		c-1.094-4.16-1.678-8.32-1.678-10.436l0.071-0.877c0.292-0.51,1.098-1.678,2.338-2.918c2.117-2.336,5.181-5.036,8.246-6.861
		c2.918-1.971,5.912-2.846,6.785-2.773h0.15c0.363,0.073,2.697,0.438,5.691,1.022C553.903,388.69,575.576,393.726,594.405,398.177z
		 M523.034,491.299c-5.473-3.138-10.875-6.422-15.105-9.415c-2.117-1.459-3.941-2.845-5.256-4.086
		c-1.315-1.168-2.117-2.117-2.263-2.408c-2.555-3.941-4.525-9.561-4.451-14.305c0-2.992,0.656-5.473,2.117-7.735
		c1.457-2.19,3.941-4.453,8.538-6.277c12.696-5.108,19.413-5.765,21.965-5.765h0.584c4.016,1.605,9.414,3.722,15.547,6.276
		c13.573,5.62,30.724,12.844,44.443,18.683c11.093,4.67,19.777,8.392,22.77,9.706c2.188,1.824,3.941,3.722,5.035,5.62
		c1.311,2.116,1.896,4.013,1.971,6.057l0.071,0.365v0.073c0,2.335-0.656,5.547-2.042,8.83c-1.971,4.889-5.327,10.071-8.905,13.647
		c-1.75,1.825-3.503,3.139-4.96,3.94c-1.461,0.877-2.484,1.023-2.847,1.023c-0.802,0-3.503-0.292-6.934-0.877
		c-2.042-0.364-4.379-0.802-7.006-1.386l-0.363-0.073c-9.928-1.678-22.987-4.16-34.301-7.006c-0.292-0.146-0.73-0.365-1.315-0.657
		C545.804,503.341,534.127,497.649,523.034,491.299z" style="opacity: 1; stroke: none; stroke-width: 7px; fill: rgb(102, 75, 79);"></path>
	<path class="st4" d="M644.961,351.629l-6.913,24.909c-0.684,2.469,0.763,5.024,3.228,5.71c2.469,0.684,5.024-0.761,5.712-3.228
		l6.913-24.909c0.684-2.469-0.763-5.024-3.228-5.71C648.204,347.716,645.649,349.161,644.961,351.629z" style="opacity: 1; stroke: none; stroke-width: 7px; fill: rgb(102, 75, 79);"></path>
	<path class="st4" d="M633.031,416.043c-2.341-1.038-5.081,0.02-6.118,2.361l-11.838,26.705c-1.04,2.341,0.018,5.081,2.359,6.119
		c2.341,1.038,5.081-0.02,6.118-2.361l11.838-26.705C636.431,419.821,635.372,417.082,633.031,416.043z" style="opacity: 1; stroke: none; stroke-width: 7px; fill: rgb(102, 75, 79);"></path>
	<path class="st4" d="M593.666,484.091l-9.386,20.54c-1.065,2.33-0.039,5.081,2.291,6.145c2.327,1.065,5.078,0.039,6.143-2.29
		l9.386-20.54c1.065-2.33,0.039-5.081-2.291-6.145C597.483,480.736,594.732,481.761,593.666,484.091z" style="opacity: 1; stroke: none; stroke-width: 7px; fill: rgb(102, 75, 79);"></path>
	<path class="st4" d="M671.865,283.128l-7.412,23.79c-0.848,2.717,0.67,5.606,3.385,6.453c2.719,0.846,5.609-0.67,6.453-3.387
		l7.412-23.79c0.848-2.717-0.67-5.606-3.385-6.453C675.599,278.895,672.709,280.411,671.865,283.128z" style="opacity: 1; stroke: none; stroke-width: 7px; fill: rgb(102, 75, 79);"></path>
</g>
</svg>
