<!--?xml version="1.0" encoding="utf-8"?-->
<!-- Generator: Adobe Illustrator 18.1.1, SVG Export Plug-In . SVG Version: 6.00 Build 0)  -->

<svg version="1.1" id="_x32_" xmlns="http://www.w3.org/2000/svg" xmlns:xlink="http://www.w3.org/1999/xlink" x="0px" y="0px" viewBox="0 0 512 512" style="width: 512px; height: 512px; opacity: 1;" xml:space="preserve">
<style type="text/css">
	.st0{fill:#4B4B4B;}
</style>
<g>
	<polygon class="st0" points="2.579,303.619 2.549,303.551 2.549,303.574 	" style="fill: rgb(185, 22, 85);"></polygon>
	<path class="st0" d="M185.063,36.085l0.046,0.022c0.06,0.015,0.121,0.03,0.181,0.053L185.063,36.085z" style="fill: rgb(185, 22, 85);"></path>
	<path class="st0" d="M510.183,292.843v-0.008c-0.634-1.568-1.494-3.318-2.67-5.626l-0.016-0.022
		c-3.65-6.999-10.603-18.582-21.07-32.511c6.41-8.092,11.629-15.309,15.49-21.184c2.096-3.167,3.816-5.942,5.188-8.28
		c0.679-1.192,1.252-2.262,1.75-3.228c0.497-0.965,0.95-1.87,1.342-2.873l-0.014,0.008c0.588-1.478,0.89-3.046,0.89-4.592
		c0-2.3-0.649-4.412-1.629-6.146c-0.875-1.538-2.066-2.821-3.484-3.877v-0.008l-0.03-0.022l-0.106-0.106l-0.121-0.09l-0.286-0.233
		c-0.302-0.212-0.784-0.536-1.418-0.973c-3.243-2.293-10.648-7.481-17.239-12.142v-0.008c-3.304-2.315-6.41-4.486-8.688-6.1
		l-0.046-0.03c-0.332-0.234-0.618-0.438-0.92-0.649c0.241-0.701,0.512-1.486,0.799-2.361v0.008
		c1.719-4.993,4.268-12.496,6.44-18.823l0.045-0.12c1.086-3.182,2.066-6.048,2.791-8.19c0.377-1.04,0.663-1.923,0.874-2.504h-0.015
		c0.121-0.309,0.211-0.565,0.241-0.686l0.076-0.182l0.15-0.445v-0.204c0.378-1.192,0.604-2.413,0.588-3.65
		c0.016-1.863-0.407-3.809-1.327-5.671c-0.935-1.863-2.383-3.461-4.132-4.66l-0.136-0.128l-0.242-0.144
		c-0.89-0.543-1.734-1.01-2.744-1.516l-0.03-0.022c-1.84-0.913-4.103-1.923-6.863-3.024l0.015,0.008
		c-7.044-2.851-17.436-6.425-30.437-9.963c0.03-1.839,0.061-3.642,0.061-5.369c0-10.21-0.514-18.845-1.162-25.52
		c-0.317-3.341-0.694-6.206-1.056-8.528c-0.316-2.18-0.633-3.861-0.995-5.339v-0.031l-0.075-0.309
		c-0.784-3.122-2.715-5.596-4.948-7.164l-0.03-0.015c-2.187-1.478-4.645-2.202-7.134-2.232h-0.271h-0.061h-0.014h-0.136l-0.271,0.03
		c-0.332,0-0.86,0-1.554,0.03c-3.952,0.045-13.031,0.181-21.116,0.309h-0.014c-4.661,0.068-8.944,0.128-11.75,0.166
		c-0.226-0.709-0.468-1.508-0.739-2.383c-1.569-5.068-3.937-12.692-5.898-19.11l0.015,0.038l-0.015-0.06
		c-1.011-3.198-1.885-6.086-2.549-8.25v0.022c-0.316-1.094-0.618-1.983-0.784-2.542c-0.076-0.286-0.152-0.527-0.212-0.686
		l-0.03-0.136l-0.076-0.31l-0.165-0.331l-0.046-0.06c-0.739-2.127-1.991-4.057-3.785-5.565c-2.036-1.735-4.842-2.896-7.964-2.912
		c-0.121,0-0.437,0-0.845,0.03l-0.045,0.008l-0.212,0.022c-1.576,0.114-3.454,0.362-5.822,0.747l0.046-0.008l-0.076,0.016
		l-0.106,0.022c-7.797,1.328-21.04,4.359-37.585,10.038c-5.664-8.59-10.898-15.761-15.204-21.236v0.008
		c-2.368-3.016-4.472-5.528-6.267-7.542c-0.897-1.01-1.727-1.885-2.489-2.677l-0.022-0.022L301.786,5
		c-0.754-0.746-1.47-1.433-2.239-2.112l0.022,0.023l-0.045-0.038l-0.03-0.023c-2.323-1.923-5.158-2.835-7.843-2.85l-0.105,0.008
		c-0.015,0-0.015,0-0.023,0l-0.173,0.008c-2.436,0.03-4.722,0.776-6.667,2.059h-0.347l-0.724,0.731
		c-0.332,0.234-0.732,0.527-1.282,0.943c-3.19,2.39-10.438,7.835-16.892,12.669l-0.143,0.105l0.135-0.097
		c-3.235,2.436-6.251,4.683-8.491,6.365l-0.279,0.211c-0.234,0.182-0.452,0.34-0.663,0.505c-0.604-0.445-1.268-0.95-1.999-1.508
		h-0.008c-4.246-3.19-10.618-7.971-15.988-12.006l-0.008-0.007c-2.707-2.014-5.12-3.816-6.885-5.166l-0.03-0.022
		c-0.837-0.611-1.5-1.132-2.111-1.554c-0.264-0.218-0.483-0.392-0.574-0.459l-0.09-0.068l-0.03-0.023l-0.618-0.618h-0.347
		c-1.976-1.305-4.298-2.067-6.81-2.067h-0.158c-2.655,0.008-5.52,0.912-7.874,2.88h-0.014c-0.792,0.687-1.486,1.358-2.247,2.112
		l-0.038,0.037l0.022-0.015c-1.462,1.478-3.114,3.333-5.037,5.626c-4.894,5.829-11.531,14.585-18.929,25.844
		c-0.316-0.106-0.626-0.226-0.935-0.324l-0.181-0.06c-10.664-3.635-19.894-6.146-27.104-7.79l-0.06-0.016
		c-3.65-0.807-6.742-1.425-9.321-1.855c-2.579-0.437-4.556-0.694-6.244-0.807l-0.092-0.008h-0.014
		c-0.09-0.007-0.354-0.022-0.679-0.022c-3.13,0.016-5.92,1.184-7.971,2.866l-0.023,0.022l-0.015,0.015
		c-1.388,1.184-2.473,2.632-3.236,4.208h-0.874v2.27c-0.113,0.362-0.249,0.852-0.445,1.494c-1.176,3.785-3.846,12.443-6.214,20.165
		l0.015-0.007c-1.206,3.846-2.315,7.473-3.137,10.128l-0.016,0.03c-0.113,0.407-0.218,0.739-0.332,1.101
		c-0.739-0.008-1.568-0.023-2.504-0.038h0.008c-5.302-0.076-13.273-0.212-19.962-0.294h-0.037c-3.356-0.053-6.372-0.106-8.605-0.136
		c-1.116-0.015-2.051-0.045-2.752-0.045h-0.37l-0.068-0.008l-0.143-0.022h-0.724c-2.526-0.008-5.022,0.762-7.179,2.24
		c-2.263,1.561-4.178,4.027-4.969,7.119h-0.008c0,0.015,0,0.03,0,0.045c0,0-0.015,0-0.015,0.008
		c-0.407,1.554-0.732,3.348-1.086,5.686c-1.041,6.968-2.195,18.718-2.195,34.041c0,1.72,0.023,3.53,0.053,5.362
		c-9.955,2.714-18.386,5.445-24.932,7.865l-0.09,0.03l0.106-0.03c-3.582,1.297-6.606,2.504-9.08,3.597l0.023-0.007
		c-1.23,0.543-2.331,1.033-3.348,1.553c-0.008,0-0.008,0-0.023,0.008l-0.053,0.03l0.038-0.015c-0.981,0.498-1.832,0.958-2.7,1.493
		h-0.016c-1.991,1.252-3.514,3.002-4.48,4.932c-0.935,1.855-1.35,3.801-1.342,5.671c-0.008,1.236,0.211,2.458,0.588,3.65v0.347
		l0.226,0.475c0.03,0.06,0.075,0.211,0.151,0.437c0.098,0.272,0.218,0.649,0.354,1.071l0.008,0.046l0.015,0.03
		c1.29,3.688,4.223,12.307,6.848,19.961v-0.014c1.297,3.831,2.518,7.42,3.423,10.052c0.136,0.4,0.256,0.739,0.377,1.094
		c-0.603,0.43-1.297,0.913-2.051,1.448h0.016c-4.374,3.054-10.875,7.648-16.38,11.531l-0.113,0.076l0.128-0.084
		c-2.744,1.916-5.233,3.665-7.088,4.977l0.015-0.007c-0.905,0.648-1.659,1.168-2.172,1.546l-0.121,0.068H6.878l-0.799,0.762
		l0.014,0.008c-1.448,1.064-2.654,2.383-3.529,3.898l-0.016,0.023l-0.015,0.022c-0.958,1.726-1.606,3.823-1.606,6.124
		c0.008,1.553,0.301,3.107,0.867,4.57l0.008,0.015c0.392,1.003,0.837,1.908,1.334,2.873c1.863,3.613,4.985,8.726,9.487,15.279
		c3.5,5.06,7.85,10.958,12.941,17.39c-0.158,0.211-0.339,0.445-0.498,0.648c-6.802,9.11-12.081,17.202-15.904,23.597
		c-1.908,3.205-3.447,5.988-4.654,8.273l0.015-0.03l-0.03,0.052c-1.192,2.3-2.044,4.088-2.685,5.641l-0.007,0.022l-0.008,0.023
		c-0.566,1.462-0.86,3.016-0.867,4.57c0,2.292,0.641,4.381,1.621,6.1c0.875,1.584,2.082,2.964,3.575,4.027l-0.007,0.015l0.135,0.106
		l0.724,0.588h0.12c0.256,0.173,0.551,0.377,0.905,0.618c3.25,2.285,10.64,7.511,17.247,12.149l0.046,0.038
		c3.273,2.315,6.334,4.472,8.612,6.056l0.03,0.022c0.339,0.234,0.626,0.437,0.928,0.641c-0.234,0.717-0.513,1.508-0.807,2.398v0.008
		c-1.696,5.015-4.276,12.564-6.455,18.906c-1.086,3.189-2.066,6.055-2.79,8.19c-0.37,1.041-0.664,1.93-0.875,2.511v0.022
		c-0.09,0.28-0.166,0.49-0.218,0.641l-0.076,0.204l-0.008,0.022v0.015c-0.497,1.388-0.747,2.836-0.739,4.284
		c-0.008,1.847,0.407,3.793,1.342,5.648c0.965,1.916,2.459,3.65,4.42,4.91l0.045,0.022h-0.008c1.44,0.883,3.175,1.817,5.498,2.986
		H34.2c7.096,3.522,19.547,8.824,36.273,13.944c-0.271,5.528-0.385,10.663-0.385,15.278c0,6.727,0.212,12.413,0.543,16.922
		c0.166,2.27,0.348,4.231,0.574,5.942v0.023v0.015c0.249,1.674,0.475,3.046,0.814,4.472c0.784,3.137,2.7,5.649,5.008,7.209
		c1.976,1.342,4.186,2.074,6.433,2.187v0.008l0.264,0.022l0.12,0.016h0.641c0.188,0,0.369-0.008,0.701-0.016
		c0.316-0.008,0.724-0.015,1.214-0.015h0.023h0.03c3.936-0.076,13.024-0.212,21.1-0.317h0.008c4.668-0.083,8.958-0.151,11.786-0.188
		c0.219,0.709,0.468,1.508,0.739,2.383c1.569,5.06,3.906,12.707,5.897,19.125v-0.016c0.981,3.228,1.886,6.116,2.519,8.243
		l0.015,0.038v0.03c0.332,1.033,0.596,1.886,0.784,2.489c0.09,0.347,0.174,0.626,0.196,0.709l0.045,0.158l0.03,0.075l0.014,0.031
		c0.687,2.352,2.051,4.472,4.012,6.13l0.046,0.038l-0.022-0.022c2.051,1.689,4.841,2.858,7.971,2.873h0.06l0.513-0.03l0.03,0.008
		h0.083l0.075-0.008c1.078-0.06,2.074-0.211,3.115-0.369h0.015c4.012-0.641,9.819-2.022,17.405-4.254l-0.211,0.068l0.226-0.068
		c5.904-1.75,12.895-4.057,20.632-6.938c0.144,0.212,0.286,0.4,0.43,0.618l0.015,0.016l0.007,0.008
		c6.554,9.268,12.609,16.802,17.511,22.397l-0.008-0.007c2.451,2.828,4.646,5.151,6.448,7.006l0.022,0.03
		c1.795,1.818,3.212,3.19,4.532,4.276v0.008c0,0,0.016,0.008,0.023,0.015l0.007-0.007c2.33,1.937,5.158,2.858,7.813,2.866v-0.008
		l0.06,0.008h0.075c2.912-0.016,5.536-0.995,7.648-2.609l0.136-0.091l0.03-0.037c0.181-0.136,0.709-0.528,1.357-1.018l0.015-0.015
		c0,0,0.015-0.008,0.022-0.016c3.19-2.398,10.422-7.797,16.87-12.654c3.243-2.421,6.274-4.706,8.499-6.372
		c0.354-0.264,0.641-0.482,0.943-0.716c0.603,0.445,1.266,0.95,1.998,1.508h0.008c4.246,3.19,10.618,7.971,15.988,12.006l-0.12-0.09
		l0.128,0.098c2.692,1.998,5.083,3.816,6.87,5.151l0.045,0.037c0.89,0.649,1.63,1.207,2.081,1.562l0.046,0.045l0.09,0.053
		l0.468,0.354l0.12,0.09l0.731,0.619h0.212c1.983,1.282,4.306,2.081,6.855,2.096h0.03l0.105-0.008c2.33,0,4.782-0.754,6.923-2.247
		h0.166l0.731-0.604c1.335-1.094,2.753-2.474,4.563-4.314h0.007c5.535-5.64,14.366-15.806,24.351-30.044
		c9.758,3.627,18.28,6.304,25.052,8.167h-0.016c3.68,1.026,6.863,1.78,9.457,2.345l0.031,0.008c1.296,0.264,2.458,0.483,3.529,0.649
		c0.03,0.008,0.03,0.008,0.045,0.016c0,0,0.015,0,0.031,0c1.056,0.188,2.036,0.301,3.016,0.361c0.014,0.008,0.03,0.008,0.06,0.008
		h0.015c0.362,0.03,0.664,0.03,0.8,0.03c3.137-0.008,5.927-1.192,7.979-2.911c1.945-1.644,3.287-3.748,4.012-6.078l0.12-0.378
		v-0.015c0.106-0.354,0.242-0.829,0.438-1.463c1.16-3.778,3.846-12.458,6.213-20.165c1.192-3.876,2.308-7.488,3.138-10.173v-0.022
		c0.12-0.392,0.226-0.732,0.332-1.086c0.739,0.007,1.568,0.022,2.504,0.037c5.309,0.076,13.302,0.212,19.999,0.317
		c3.378,0.053,6.41,0.083,8.597,0.128h0.046h0.03c1.07,0,1.975,0.03,2.684,0.03c0.212,0,0.348,0.022,0.769,0.03h0.528
		c2.504,0.007,5.007-0.724,7.194-2.247c2.263-1.576,4.193-4.043,4.978-7.165c0.347-1.432,0.573-2.828,0.814-4.502v-0.022v-0.022
		c0.634-5.046,1.117-12.753,1.117-22.858c0-4.616-0.106-9.736-0.348-15.264c0.302-0.09,0.574-0.166,0.875-0.263l-0.014,0.007
		c10.859-3.348,19.893-6.802,26.726-9.735h-0.015c3.453-1.456,6.349-2.798,8.672-3.967c2.172-1.086,3.816-1.96,5.189-2.79
		l0.03-0.022l0.302-0.189l-0.212,0.128l0.212-0.135c1.961-1.245,3.469-2.979,4.434-4.91c0.935-1.855,1.358-3.801,1.342-5.648
		c0.016-1.229-0.211-2.459-0.588-3.65v-0.346l-0.196-0.422c-0.06-0.151-0.105-0.294-0.165-0.49
		c-0.106-0.294-0.226-0.656-0.362-1.078l-0.015-0.03l-0.015-0.03c-1.282-3.718-4.208-12.33-6.817-19.97l-0.015-0.03
		c-1.312-3.785-2.534-7.39-3.439-10.03v-0.016c-0.136-0.384-0.256-0.731-0.377-1.086c0.603-0.422,1.296-0.912,2.051-1.44h-0.015
		c4.374-3.054,10.874-7.647,16.365-11.501c2.776-1.938,5.249-3.695,7.074-4.962v-0.008c0.905-0.633,1.629-1.161,2.157-1.524h0.015
		c0.046-0.052,0.091-0.075,0.151-0.112h1.84v-1.494c1.056-0.92,1.991-1.961,2.7-3.197c0.98-1.727,1.629-3.824,1.629-6.146
		c0-1.554-0.302-3.108-0.875-4.57L510.183,292.843z M358.181,46.454c3.137-0.716,5.792-1.244,7.918-1.591
		c3.076,9.984,9.803,31.741,9.803,31.771c1.81,5.89,7.27,9.902,13.438,9.902h0.212c0,0,9.411-0.128,18.883-0.264
		c4.751-0.084,9.532-0.166,13.152-0.218h1.191c0.905,6.062,1.885,16.711,1.885,30.443c0,1.169,0,2.338-0.03,3.53
		c-18.219-4.035-39.863-7.466-63.316-8.711c-8.446-21.99-18.461-41.567-28.024-57.743C343.189,50.225,351.68,47.948,358.181,46.454z
		 M88.414,92.78c0.271-2.654,0.535-4.917,0.799-6.749c10.437,0.158,33.226,0.506,33.256,0.506h0.422
		c6.078-0.106,11.418-4.087,13.228-9.902c0,0,2.76-9.012,5.551-18.091c1.41-4.54,2.82-9.088,3.876-12.564
		c0.136-0.4,0.242-0.769,0.347-1.146c6.53,1.124,18.19,3.778,32.827,8.718c-9.585,16.176-19.6,35.776-28.046,57.796
		c-23.453,1.192-45.074,4.624-63.316,8.681c-0.03-1.192-0.03-2.361-0.03-3.53C87.328,106.905,87.811,98.829,88.414,92.78z
		 M74.395,374.311c-9.902-3.084-18.107-6.236-24.23-8.839c-2.942-1.282-5.437-2.42-7.346-3.378
		c3.363-9.878,10.754-31.439,10.754-31.439c0.505-1.524,0.739-3.062,0.739-4.57c0.03-4.495-2.15-8.823-5.943-11.508
		c0,0-7.707-5.414-15.489-10.889c-3.877-2.707-7.782-5.467-10.732-7.542c-0.347-0.241-0.656-0.475-0.98-0.716
		c3.054-5.814,9.132-15.995,18.242-28.288c12.382,14.132,27.842,29.743,46.137,44.592C79.5,334.342,76.114,355.797,74.395,374.311z
		 M296.485,485.575c-2.096,2.413-3.929,4.404-5.445,5.942c-8.333-6.267-26.613-19.939-26.613-19.939
		c-2.488-1.862-5.468-2.821-8.446-2.821c-2.948,0-5.928,0.958-8.416,2.821c0,0-7.542,5.656-15.144,11.342
		c-3.793,2.843-7.616,5.709-10.512,7.88c-0.316,0.242-0.641,0.513-0.957,0.747c-4.593-4.728-12.376-13.627-21.222-26.077
		c17.156-7.361,36.628-17.187,56.28-29.939c19.652,12.775,39.124,22.578,56.251,29.939
		C306.311,473.864,300.844,480.605,296.485,485.575z M412.447,302.496l-4.193,3.295l1.464,5.151
		c6.953,24.517,10.588,48.046,12.292,67.751c0.498,5.738,0.829,11.161,1.041,16.176c0.181,4.683,0.256,9.004,0.256,12.933
		c0,6.327-0.212,11.583-0.498,15.565c-0.06,0.935-0.136,1.81-0.181,2.579c-10.528-0.158-33.076-0.505-33.106-0.505h-0.046h-0.136
		c-3.107,0-6.002,1.003-8.371,2.738c-2.352,1.749-4.192,4.222-5.098,7.172c0,0-2.76,9.004-5.551,18.084
		c-1.402,4.54-2.805,9.087-3.876,12.563c-0.106,0.347-0.212,0.656-0.287,0.981c-2.956-0.634-6.998-1.674-11.795-3.084
		c-5.158-1.508-11.236-3.506-17.978-5.973c-4.736-1.719-9.781-3.687-15.09-5.95c-18.302-7.646-39.652-18.348-60.881-32.586
		l-4.434-2.978l-4.434,2.978c-21.222,14.238-42.548,24.917-60.851,32.608c-3.899,1.63-7.67,3.146-11.259,4.495
		c-1.305,0.505-2.609,0.98-3.846,1.432c-8.612,3.138-16.1,5.505-21.975,7.119c-3.076,0.845-5.7,1.494-7.775,1.915
		c-3.084-10.044-9.721-31.582-9.721-31.582c-1.84-5.92-7.308-9.932-13.468-9.932h-0.212c0,0-9.403,0.128-18.883,0.294
		c-4.751,0.053-9.532,0.128-13.152,0.188c-0.37,0-0.709,0-1.041,0.022c-0.361-4.117-0.709-10.354-0.679-18.144
		c0-3.929,0.076-8.25,0.264-12.933c0.211-5.015,0.536-10.407,1.033-16.154c1.696-19.698,5.316-43.257,12.292-67.774l1.47-5.151
		l-4.2-3.295c-20.181-15.859-37.081-32.963-50.067-48.098c-2.737-3.168-5.286-6.214-7.67-9.163c-0.905-1.146-1.81-2.262-2.654-3.355
		c-5.656-7.165-10.211-13.537-13.552-18.635c-1.757-2.662-3.22-4.97-4.306-6.802c8.612-6.056,27.043-19.042,27.073-19.042
		l0.286-0.218c3.613-2.708,5.687-6.931,5.687-11.289c0-1.508-0.264-3.047-0.769-4.54c0,0-3.032-8.922-6.109-17.896
		c-1.538-4.488-3.077-9.004-4.253-12.436c-0.106-0.316-0.212-0.641-0.318-0.95c0.724-0.324,1.539-0.671,2.413-1.011
		c6.004-2.42,15.272-5.633,26.961-8.876c4.834-1.32,10.09-2.677,15.724-3.959l0.316-0.075c19.306-4.435,42.819-8.175,68.264-9.14
		l5.339-0.204l1.825-5c8.846-24.139,19.871-45.549,30.18-62.652c2.142-3.56,4.246-6.938,6.289-10.09
		c0.8-1.222,1.569-2.421,2.368-3.59c5.037-7.624,9.698-13.936,13.438-18.725c1.961-2.497,3.71-4.563,5.098-6.184
		c8.394,6.319,26.455,19.833,26.455,19.833c2.488,1.886,5.467,2.821,8.446,2.821c2.948,0,5.942-0.935,8.416-2.821
		c0,0,7.541-5.633,15.143-11.342c3.801-2.843,7.624-5.709,10.52-7.88c0.264-0.218,0.528-0.43,0.792-0.588
		c0.528,0.611,1.117,1.275,1.728,2.021c4.2,4.962,10.142,12.775,16.809,22.866c2.79,4.2,5.717,8.762,8.658,13.68l0.294,0.475
		c10.226,17.05,21.116,38.271,29.886,62.177l1.825,5.022l5.34,0.182c25.58,0.965,49.198,4.751,68.58,9.215
		c4.117,0.935,8.054,1.886,11.749,2.866c1.342,0.354,2.654,0.724,3.952,1.093c8.838,2.451,16.304,4.887,22.021,6.991
		c2.971,1.086,5.445,2.066,7.376,2.918c-3.394,9.932-10.679,31.229-10.679,31.259c-0.497,1.493-0.739,3.032-0.739,4.54
		c-0.03,4.494,2.156,8.822,5.943,11.508c0,0,7.707,5.415,15.489,10.89c3.877,2.73,7.783,5.467,10.74,7.571
		c0.286,0.182,0.543,0.392,0.814,0.581c-1.508,2.602-3.74,6.132-6.621,10.279c-3.016,4.412-6.757,9.532-11.207,15.158
		c-3.076,3.936-6.53,8.159-10.301,12.518C449.52,269.532,432.628,286.667,412.447,302.496z M463.713,314.524l-0.06,0.052
		c-3.816,2.685-6.003,7.044-5.973,11.531c0,1.516,0.242,3.054,0.739,4.548c0,0,3.062,8.891,6.109,17.865
		c1.553,4.518,3.091,9.005,4.252,12.458c0.136,0.4,0.272,0.769,0.392,1.139c-5.942,2.926-16.877,7.624-31.568,12.194
		c-1.719-18.514-5.113-39.969-11.161-62.577c18.31-14.849,33.755-30.46,46.137-44.592c6.139,8.288,10.89,15.596,14.283,21.282
		c1.644,2.76,2.987,5.12,3.967,7.036C482.626,301.221,465.101,313.573,463.713,314.524z" style="fill: rgb(185, 22, 85);"></path>
</g>
</svg>
