<!--?xml version="1.0" encoding="utf-8"?-->
<!-- Generator: Adobe Illustrator 15.1.0, SVG Export Plug-In . SVG Version: 6.00 Build 0)  -->

<svg version="1.1" id="_x32_" xmlns="http://www.w3.org/2000/svg" xmlns:xlink="http://www.w3.org/1999/xlink" x="0px" y="0px" width="512px" height="512px" viewBox="0 0 512 512" style="width: 512px; height: 512px; opacity: 1;" xml:space="preserve">
<style type="text/css">

	.st0{fill:#4B4B4B;}

</style>
<g>
	<path class="st0" d="M168.917,337.93l-33.047-33.047c-19.906,11.938-63.891,31.625-63.891,31.625
		c-9.953,4.125-17.125,13.016-19.031,23.609l-22.266,103.75l-12.766,12.781c-4.609-0.063-9.234,1.656-12.734,5.172
		c-6.906,6.891-6.906,18.094,0,25s18.109,6.906,25.016,0c3.5-3.516,5.219-8.125,5.156-12.734l12.781-12.766l103.75-22.266
		c10.594-1.906,19.484-9.078,23.609-19.031c0,0,19.703-43.953,31.641-63.875l-33.047-33.047L168.917,337.93z M133.183,406.133
		c-7.547,7.531-19.781,7.531-27.313,0c-7.547-7.547-7.547-19.766,0-27.313c7.531-7.547,19.766-7.547,27.313,0
		C140.714,386.368,140.714,398.586,133.183,406.133z" style="fill: rgb(102, 75, 79);"></path>
	<polygon class="st0" points="184.495,327.102 180.87,323.493 176.526,319.149 	" style="fill: rgb(102, 75, 79);"></polygon>
	<path class="st0" d="M170.964,270.571c-7.969,7.969-18.313,5.578-18.313,5.578l-9.563,9.547l37.781,37.797l45.438,45.422
		l9.547-9.547c0,0-2.391-10.359,5.578-18.328c7.953-7.953,32.641-32.641,32.641-32.641l-70.469-70.469
		C203.604,237.93,178.917,262.602,170.964,270.571z" style="fill: rgb(102, 75, 79);"></path>
	<path class="st0" d="M489.464,22.54c-32.578-32.578-68.109-29.609-105.125,7.406S240.87,199.461,215.792,224.54l71.656,71.672
		c25.094-25.078,157.594-131.531,194.609-168.547S522.026,55.118,489.464,22.54z M457.136,80.04L345.589,191.586
		c-2.719,2.719-7.141,2.719-9.859,0l-15.313-15.297c-2.719-2.734-2.719-7.156,0-9.875L431.964,54.868
		c2.719-2.734,7.141-2.734,9.875,0l15.297,15.297C459.854,72.899,459.854,77.321,457.136,80.04z" style="fill: rgb(102, 75, 79);"></path>
</g>
</svg>
