<!--?xml version="1.0" encoding="utf-8"?-->
<!-- Generator: Adobe Illustrator 22.1.0, SVG Export Plug-In . SVG Version: 6.00 Build 0)  -->
<svg version="1.1" id="_x31_6" xmlns="http://www.w3.org/2000/svg" xmlns:xlink="http://www.w3.org/1999/xlink" x="0px" y="0px" viewBox="0 0 720 417" style="enable-background:new 0 0 720 417;" xml:space="preserve">
<style type="text/css">
	.st0{fill:#FFFFFF;}
	.st1{fill:#A3B9C3;}
	.st2{fill:#7DDD62;}
	.st3{fill:#E1E854;}
</style>
<g>
	<polygon class="st0" points="720,172.709 299.345,417 0,244.291 420.647,0 	" style="opacity: 1; stroke: none; stroke-width: 7px;"></polygon>
	<polygon class="st1" points="597.166,203.051 588.179,208.273 496.284,155.26 505.279,150.03 	" style="opacity: 1; stroke: none; stroke-width: 7px; fill: rgb(156, 145, 139);"></polygon>
	<polygon class="st1" points="631.336,183.211 622.34,188.432 530.445,135.419 539.441,130.19 	" style="opacity: 1; stroke: none; stroke-width: 7px; fill: rgb(156, 145, 139);"></polygon>
	<polygon class="st1" points="495.909,98.262 418.591,143.164 333.532,94.094 410.859,49.191 	" style="opacity: 1; stroke: none; stroke-width: 7px; fill: rgb(156, 145, 139);"></polygon>
	<polygon class="st1" points="530.428,241.81 521.493,246.997 292.962,115.153 301.905,109.957 	" style="opacity: 1; stroke: none; stroke-width: 7px; fill: rgb(156, 145, 139);"></polygon>
	<polygon class="st1" points="393.068,246.248 384.134,251.435 220.677,157.131 229.62,151.945 	" style="opacity: 1; stroke: none; stroke-width: 7px; fill: rgb(156, 145, 139);"></polygon>
	<polygon class="st2" points="166.305,235.371 117.775,263.556 94.264,249.99 142.793,221.804 	" style="opacity: 1; stroke: none; stroke-width: 7px; fill: rgb(170, 77, 83);"></polygon>
	<polygon class="st1" points="494.281,262.799 485.347,267.986 256.824,136.142 265.758,130.955 	" style="opacity: 1; stroke: none; stroke-width: 7px; fill: rgb(156, 145, 139);"></polygon>
	<polygon class="st3" points="234.174,245.526 160.583,288.253 137.133,274.721 210.715,231.986 	" style="opacity: 1; stroke: none; stroke-width: 7px; fill: rgb(220, 159, 149);"></polygon>
	<polygon class="st2" points="244.232,289.306 203.453,312.993 180.002,299.461 220.782,275.774 	" style="opacity: 1; stroke: none; stroke-width: 7px; fill: rgb(170, 77, 83);"></polygon>
	<polygon class="st3" points="321.663,293.97 246.322,337.724 222.871,324.192 298.204,280.438 	" style="opacity: 1; stroke: none; stroke-width: 7px; fill: rgb(220, 159, 149);"></polygon>
	<polygon class="st2" points="389.533,304.117 289.139,362.429 265.68,348.888 366.083,290.585 	" style="opacity: 1; stroke: none; stroke-width: 7px; fill: rgb(170, 77, 83);"></polygon>
	<polygon class="st1" points="305.989,372.149 301.295,374.872 72.772,243.028 77.466,240.305 	" style="opacity: 1; stroke: none; stroke-width: 7px; fill: rgb(156, 145, 139);"></polygon>
</g>
</svg>
