<!--?xml version="1.0" encoding="utf-8"?-->
<!-- Generator: Adobe Illustrator 22.1.0, SVG Export Plug-In . SVG Version: 6.00 Build 0)  -->
<svg version="1.1" id="_x31_0" xmlns="http://www.w3.org/2000/svg" xmlns:xlink="http://www.w3.org/1999/xlink" x="0px" y="0px" viewBox="0 0 720 331" style="enable-background:new 0 0 720 331;" xml:space="preserve">
<style type="text/css">
	.st0{fill:#5D768C;}
	.st1{fill:#496278;}
	.st2{fill:#020B26;}
	.st3{fill:#FFD6DD;}
	.st4{fill:#FF692E;}
	.st5{fill:#4E677D;}
	.st6{fill:#6C859B;}
	.st7{fill:#3A5369;}
	.st8{fill:#263F55;}
	.st9{fill:#E1A8A1;}
	.st10{fill:#27364A;}
	.st11{fill:#FF7FAF;}
	.st12{fill:#EB6B9B;}
	.st13{fill:#FFC6BF;}
	.st14{fill:#364559;}
	.st15{fill:#04BF8A;}
	.st16{fill:#13CE99;}
	.st17{fill:#EA6000;}
</style>
<g>
	<g>
		<polygon class="st0" points="673.321,310.056 494.243,310.056 516.471,163.842 695.55,163.842 		" style="opacity: 1; stroke: none; stroke-width: 7px;"></polygon>
		<polygon class="st1" points="677.687,313.282 673.321,310.056 695.55,163.842 700.141,165.874 		" style="opacity: 1; stroke: none; stroke-width: 7px;"></polygon>
		<polygon class="st2" points="506.495,291.759 525.058,174.731 681.028,174.731 662.465,291.759 		" style="opacity: 1; stroke: none; stroke-width: 7px;"></polygon>
		<g>
			<path class="st3" d="M632.569,198.094l14.791,0.013c1.137,0.001,2.249-1.243,2.484-2.779c0.234-1.536-0.498-2.781-1.635-2.782
				l-14.791-0.013c-1.137-0.001-2.249,1.243-2.484,2.779C630.7,196.847,631.432,198.093,632.569,198.094" style="opacity: 1; stroke: none; stroke-width: 7px; fill: rgb(220, 159, 149);"></path>
			<path class="st3" d="M610.58,198.096l10.829-0.002c1.137,0,2.249-1.245,2.482-2.781c0.233-1.536-0.5-2.78-1.638-2.78
				l-10.829,0.002c-1.137,0-2.249,1.245-2.482,2.781C608.709,196.851,609.443,198.096,610.58,198.096" style="opacity: 1; stroke: none; stroke-width: 7px; fill: rgb(220, 159, 149);"></path>
			<path class="st3" d="M590.447,198.095l7.449,0.005c1.138,0.001,2.249-1.244,2.483-2.779c0.234-1.536-0.498-2.781-1.636-2.782
				l-7.449-0.005c-1.138-0.001-2.249,1.244-2.483,2.779C588.577,196.849,589.31,198.094,590.447,198.095" style="opacity: 1; stroke: none; stroke-width: 7px; fill: rgb(220, 159, 149);"></path>
			<path class="st3" d="M574.056,198.1l7.159,0.006c1.137,0.001,2.249-1.243,2.484-2.779c0.234-1.536-0.498-2.781-1.635-2.782
				l-7.158-0.006c-1.137-0.001-2.249,1.243-2.484,2.779C572.186,196.853,572.918,198.099,574.056,198.1" style="opacity: 1; stroke: none; stroke-width: 7px; fill: rgb(220, 159, 149);"></path>
			<path class="st4" d="M538.769,198.106l27.299-0.01c1.137-0.001,2.249-1.246,2.482-2.781c0.233-1.536-0.5-2.78-1.638-2.78
				l-27.299,0.01c-1.138,0.001-2.249,1.246-2.482,2.781C536.898,196.862,537.632,198.107,538.769,198.106" style="opacity: 1; stroke: none; stroke-width: 7px; fill: rgb(170, 77, 83);"></path>
			<path class="st3" d="M626.647,213.881l18.322-0.027c1.138-0.002,2.248-1.248,2.481-2.784c0.232-1.536-0.502-2.779-1.64-2.777
				l-18.322,0.027c-1.138,0.002-2.248,1.248-2.481,2.784C624.775,212.639,625.51,213.882,626.647,213.881" style="opacity: 1; stroke: none; stroke-width: 7px; fill: rgb(220, 159, 149);"></path>
			<path class="st3" d="M590.635,213.878h27.631c1.137,0,2.249-1.245,2.482-2.78c0.234-1.536-0.5-2.78-1.637-2.78h-27.631
				c-1.138,0-2.249,1.245-2.483,2.78C588.765,212.633,589.498,213.878,590.635,213.878" style="opacity: 1; stroke: none; stroke-width: 7px; fill: rgb(220, 159, 149);"></path>
			<path class="st4" d="M570.767,213.871l11.524,0.005c1.138,0.001,2.249-1.244,2.483-2.78c0.234-1.536-0.499-2.781-1.636-2.781
				l-11.524-0.005c-1.138,0-2.249,1.244-2.483,2.78C568.897,212.626,569.629,213.871,570.767,213.871" style="opacity: 1; stroke: none; stroke-width: 7px; fill: rgb(170, 77, 83);"></path>
			<path class="st3" d="M540.533,213.855l21.475,0.014c1.137,0.001,2.249-1.243,2.483-2.779c0.234-1.536-0.498-2.781-1.636-2.782
				l-21.475-0.014c-1.137-0.001-2.249,1.243-2.483,2.779C538.663,212.608,539.395,213.854,540.533,213.855" style="opacity: 1; stroke: none; stroke-width: 7px; fill: rgb(220, 159, 149);"></path>
			<path class="st3" d="M616.491,229.567l17.831,0.017c1.137,0.001,2.249-1.243,2.484-2.778c0.234-1.536-0.498-2.781-1.635-2.782
				l-17.831-0.017c-1.137-0.001-2.249,1.243-2.484,2.778C614.621,228.32,615.353,229.566,616.491,229.567" style="opacity: 1; stroke: none; stroke-width: 7px; fill: rgb(220, 159, 149);"></path>
			<path class="st3" d="M598.901,229.573l8.91-0.007c1.138-0.001,2.249-1.246,2.482-2.782c0.233-1.536-0.501-2.78-1.639-2.779
				l-8.91,0.007c-1.138,0.001-2.249,1.246-2.482,2.782C597.03,228.33,597.763,229.574,598.901,229.573" style="opacity: 1; stroke: none; stroke-width: 7px; fill: rgb(220, 159, 149);"></path>
			<path class="st4" d="M577.541,229.59l12.013-0.011c1.138-0.001,2.249-1.247,2.482-2.782c0.233-1.536-0.501-2.78-1.639-2.779
				l-12.013,0.011c-1.138,0.001-2.249,1.247-2.482,2.782C575.669,228.347,576.403,229.591,577.541,229.59" style="opacity: 1; stroke: none; stroke-width: 7px; fill: rgb(170, 77, 83);"></path>
			<path class="st3" d="M538.141,229.587l29.034,0.013c1.137,0.001,2.249-1.244,2.483-2.779c0.234-1.536-0.499-2.781-1.636-2.782
				l-29.034-0.013c-1.137-0.001-2.249,1.244-2.483,2.779C536.271,228.341,537.004,229.587,538.141,229.587" style="opacity: 1; stroke: none; stroke-width: 7px; fill: rgb(220, 159, 149);"></path>
			<path class="st3" d="M625.451,245.354l14.729-0.007c1.138-0.001,2.249-1.246,2.482-2.781c0.233-1.536-0.5-2.78-1.638-2.779
				l-14.729,0.007c-1.138,0.001-2.249,1.246-2.482,2.782C623.58,244.111,624.313,245.355,625.451,245.354" style="opacity: 1; stroke: none; stroke-width: 7px; fill: rgb(220, 159, 149);"></path>
			<path class="st3" d="M604.804,245.354l8.167,0.001c1.138,0,2.249-1.245,2.483-2.78c0.233-1.536-0.499-2.781-1.637-2.781
				l-8.167-0.001c-1.138,0-2.249,1.245-2.483,2.78C602.933,244.109,603.666,245.354,604.804,245.354" style="opacity: 1; stroke: none; stroke-width: 7px; fill: rgb(220, 159, 149);"></path>
			<path class="st3" d="M585.497,245.353l10.964,0.001c1.138,0,2.249-1.245,2.483-2.78c0.233-1.536-0.499-2.781-1.637-2.781
				l-10.964-0.001c-1.138,0-2.249,1.245-2.483,2.78C583.627,244.108,584.36,245.353,585.497,245.353" style="opacity: 1; stroke: none; stroke-width: 7px; fill: rgb(220, 159, 149);"></path>
			<path class="st4" d="M565.152,245.351l12.373,0.002c1.138,0,2.249-1.244,2.483-2.78c0.233-1.536-0.499-2.781-1.637-2.781
				l-12.373-0.002c-1.138,0-2.249,1.244-2.483,2.78C563.282,244.106,564.015,245.351,565.152,245.351" style="opacity: 1; stroke: none; stroke-width: 7px; fill: rgb(170, 77, 83);"></path>
			<path class="st3" d="M535.746,245.347l21.454,0.006c1.138,0,2.249-1.244,2.483-2.78c0.234-1.536-0.499-2.781-1.637-2.781
				l-21.454-0.006c-1.138,0-2.249,1.244-2.483,2.78C533.875,244.101,534.608,245.347,535.746,245.347" style="opacity: 1; stroke: none; stroke-width: 7px; fill: rgb(220, 159, 149);"></path>
			<path class="st3" d="M621.366,261.141c0.387,0,0.819,0.001,1.281,0.001c3.696,0,9.325-0.011,9.326-0.011
				c1.138-0.002,2.248-1.249,2.48-2.784c0.232-1.536-0.503-2.779-1.64-2.777c-0.001,0-0.352,0.001-0.937,0.002
				c-1.756,0.003-5.615,0.009-8.383,0.009c-0.461,0-0.892,0-1.278-0.001c-1.137-0.001-2.249,1.243-2.484,2.779
				C619.496,259.894,620.228,261.14,621.366,261.141L621.366,261.141z" style="opacity: 1; stroke: none; stroke-width: 7px; fill: rgb(220, 159, 149);"></path>
			<path class="st4" d="M596.547,261.137l8.889,0.003c1.138,0,2.249-1.244,2.483-2.78c0.234-1.536-0.499-2.781-1.637-2.781
				l-8.889-0.003c-1.138,0-2.249,1.244-2.483,2.78C594.677,259.892,595.41,261.137,596.547,261.137" style="opacity: 1; stroke: none; stroke-width: 7px; fill: rgb(170, 77, 83);"></path>
			<path class="st3" d="M576.544,261.127l11.308,0.007c1.138,0.001,2.249-1.243,2.483-2.779c0.234-1.536-0.498-2.781-1.636-2.782
				l-11.308-0.007c-1.138-0.001-2.249,1.243-2.483,2.779C574.674,259.881,575.406,261.126,576.544,261.127" style="opacity: 1; stroke: none; stroke-width: 7px; fill: rgb(220, 159, 149);"></path>
			<path class="st3" d="M557.937,261.107l8.534,0.011c1.137,0.001,2.249-1.242,2.484-2.778c0.234-1.536-0.498-2.782-1.635-2.783
				l-8.534-0.011c-1.137-0.001-2.249,1.242-2.484,2.778C556.067,259.859,556.799,261.105,557.937,261.107" style="opacity: 1; stroke: none; stroke-width: 7px; fill: rgb(220, 159, 149);"></path>
			<path class="st3" d="M529.19,261.094l15.971,0.022c1.137,0.002,2.25-1.241,2.485-2.777c0.235-1.536-0.496-2.782-1.634-2.784
				l-15.97-0.022c-1.137-0.002-2.25,1.241-2.485,2.777C527.321,259.845,528.052,261.092,529.19,261.094" style="opacity: 1; stroke: none; stroke-width: 7px; fill: rgb(220, 159, 149);"></path>
			<path class="st3" d="M613.424,276.83l21.967,0.011c1.138,0.001,2.249-1.244,2.483-2.779c0.234-1.536-0.499-2.781-1.636-2.781
				l-21.967-0.011c-1.138-0.001-2.249,1.244-2.483,2.779C611.554,275.584,612.286,276.83,613.424,276.83" style="opacity: 1; stroke: none; stroke-width: 7px; fill: rgb(220, 159, 149);"></path>
			<path class="st3" d="M574.49,276.831l25.471-0.003c1.138,0,2.249-1.245,2.482-2.781c0.233-1.536-0.5-2.78-1.637-2.78
				l-25.471,0.003c-1.138,0-2.249,1.245-2.483,2.781C572.619,275.587,573.352,276.832,574.49,276.831" style="opacity: 1; stroke: none; stroke-width: 7px; fill: rgb(220, 159, 149);"></path>
			<path class="st4" d="M552.794,276.838l14.788-0.005c1.138,0,2.249-1.246,2.482-2.781c0.233-1.536-0.5-2.78-1.638-2.78
				l-14.788,0.005c-1.138,0-2.249,1.246-2.482,2.781C550.923,275.594,551.657,276.839,552.794,276.838" style="opacity: 1; stroke: none; stroke-width: 7px; fill: rgb(170, 77, 83);"></path>
			<path class="st3" d="M526.799,276.841l16.279-0.003c1.137,0,2.249-1.245,2.482-2.781c0.233-1.536-0.5-2.78-1.638-2.78
				l-16.279,0.003c-1.137,0-2.249,1.245-2.482,2.781C524.928,275.597,525.661,276.841,526.799,276.841" style="opacity: 1; stroke: none; stroke-width: 7px; fill: rgb(220, 159, 149);"></path>
		</g>
		<rect x="399.727" y="300.45" class="st5" width="160.714" height="12.832" style="opacity: 1; stroke: none; stroke-width: 7px;"></rect>
		<rect x="464.318" y="300.45" class="st6" width="31.531" height="3.376" style="opacity: 1; stroke: none; stroke-width: 7px;"></rect>
		<polygon class="st7" points="677.687,313.282 560.44,313.282 560.44,300.45 679.242,300.45 		" style="opacity: 1; stroke: none; stroke-width: 7px; fill: rgb(58, 83, 105);"></polygon>
		<rect x="656.107" y="305.689" class="st8" width="10.371" height="3.046" style="opacity: 1; stroke: none; stroke-width: 7px;"></rect>
		<rect x="635.717" y="305.689" class="st8" width="10.371" height="3.046" style="opacity: 1; stroke: none; stroke-width: 7px;"></rect>
	</g>
	<path class="st9" d="M399.106,268.304c1.372-0.275,25.602,0.011,25.602,0.011s11.592-2.892,17.683-3.189
		c6.091-0.296,29.408,9.756,36.723,13.411c7.315,3.655,9.218,7.31,11.695,11.88s7.453,11.288,3.594,11.288s-9.598-4.434-11.3-8.546
		c-1.703-4.112-11.649-4.628-11.649-4.628s6.367,6.076,7.203,10.568c0.778,4.183-5.37,4.534-7.203,0.172
		c-2.808-6.685-9.713-7.482-9.713-7.482s4.952,9.002,0.837,9.002s-5.409-4.433-6.78-4.89c-1.372-0.457-14.63,0.914-21.031-0.457
		c-6.401-1.371-14.173-4.569-14.173-4.569l-21.488,0.914V268.304z" style="opacity: 1; stroke: none; stroke-width: 7px;"></path>
	<path class="st10" d="M245.318,242.51c0,0,32.219,36.088,55.055,46.405s104.952,11.535,104.952,11.535l-5.345-37.271
		c0,0-46.215,11.785-76.302-7.698c-30.087-19.483-73.889-50.032-73.889-50.032l-7.229,47.241L245.318,242.51z" style="opacity: 1; stroke: none; stroke-width: 7px; fill: rgb(170, 77, 83);"></path>
	<rect x="252.89" y="313.282" class="st11" width="257.834" height="17.718" style="opacity: 1; stroke: none; stroke-width: 7px; fill: rgb(220, 159, 149);"></rect>
	<rect x="500.822" y="313.282" class="st12" width="219.178" height="17.718" style="opacity: 1; stroke: none; stroke-width: 7px; fill: rgb(191, 124, 113);"></rect>
	<path class="st13" d="M267.746,27.919l-37.763,5.697l-28.106,25.745c0,0-0.618,32.233,2.622,45.268l-10.462-3.873
		c0,0-13.057,35.009-23.394,44.802l14.092,27.967c0,0,39.921,6.007,39.704,3.54c-0.858-9.766,4.956-26.42,10.345-39.398
		c1.706-4.109,6.522-5.921,10.525-3.975c5.401,2.625,9.716,4.034,11.5,3.034c16.114-9.029,24.773-35.071,27.069-45.025
		c1.148-4.977,9.476-13.989,13.659-28.12c4.923-16.631,6.805-26.847,6.805-26.847L267.746,27.919z" style="opacity: 1; stroke: none; stroke-width: 7px;"></path>
	<path class="st13" d="M432.929,266.362c1.372-0.275,25.602,0.011,25.602,0.011s11.592-2.892,17.683-3.189
		c6.091-0.296,29.408,9.756,36.723,13.411c7.315,3.655,9.218,7.31,11.695,11.88c2.477,4.569,7.453,11.288,3.594,11.288
		s-9.598-4.434-11.3-8.546c-1.703-4.112-11.649-4.628-11.649-4.628s6.367,6.076,7.203,10.568c0.778,4.183-5.37,4.534-7.203,0.172
		c-2.808-6.685-9.713-7.482-9.713-7.482s4.952,9.002,0.837,9.002s-5.409-4.433-6.781-4.89c-1.372-0.457-14.63,0.914-21.031-0.457
		c-6.401-1.371-14.173-4.569-14.173-4.569l-21.488,0.914V266.362z" style="opacity: 1; stroke: none; stroke-width: 7px;"></path>
	<path class="st14" d="M343.258,245.482c-28.016-13.111-72.992-67.101-72.992-67.101c-3.535-3.369-20.606-20.786-46.751-28.607
		c-58.804-17.591-62.551-13.17-76.19,11.224c-3.595,6.43-43.248,74.951-57.951,170.002h147.76
		c4.956-33.011,18.578-65.631,25.084-81.31c1.496-3.607,6.001-4.826,9.114-2.468c12.872,9.749,43.9,35.886,72.631,46.23
		c20.885,7.519,98.616,5.104,98.616,5.104v-37.009C442.581,261.546,382.03,263.626,343.258,245.482z" style="opacity: 1; stroke: none; stroke-width: 7px; fill: rgb(224, 103, 118);"></path>
	<path class="st13" d="M282.636,79.537c4.062-0.933,2.039,29.356-0.155,28.461c-1.978-0.807-11.949,2.922-11.949,2.922
		S275.681,81.134,282.636,79.537z" style="opacity: 1; stroke: none; stroke-width: 7px;"></path>
	<path class="st15" d="M114.623,158.524L144.471,331H30.148L0.19,154.069c-1.35-7.822,4.677-14.972,12.619-14.972h78.647
		C102.872,139.097,112.641,147.288,114.623,158.524z" style="opacity: 1; stroke: none; stroke-width: 7px; fill: rgb(98, 121, 98);"></path>
	<path class="st16" d="M117.727,331c-1.798-7.106-23.448-169.535-28.351-170.002c-4.904-0.467-85.312-0.09-85.312-0.09
		s-5.73-5.154,4.163-4.868c13.673,0.395,65.737-2.661,84.691-1.026c4.532,0.391,4.975,1.58,5.073,2.539
		C98.378,161.313,124.917,331,124.917,331H117.727z" style="opacity: 1; stroke: none; stroke-width: 7px; fill: rgb(189, 221, 196);"></path>
	<path class="st17" d="M312.076,39.323c-6.264-32.085-51.976-52.001-92.694-30.089s-45.904,69.217-58.433,78.608
		c-12.529,9.391-39.935,22.694-36.02,61.822s62.643,32.867,72.823,11.599c10.18-21.268,16.311-15.032,28.189-21.901
		c5.695-3.293,21.693-19.94,27.337-32.332c10.307-22.632,17.932-34.175,41.168-43.069c2.311-0.885,4.345-1.788,5.895-2.681
		C301.788,69.416,324.37,53.952,312.076,39.323z" style="opacity: 1; stroke: none; stroke-width: 7px; fill: rgb(170, 77, 83);"></path>
</g>
</svg>
