<!--?xml version="1.0" encoding="utf-8"?-->
<!-- Generator: Adobe Illustrator 18.1.1, SVG Export Plug-In . SVG Version: 6.00 Build 0)  -->

<svg version="1.1" id="_x32_" xmlns="http://www.w3.org/2000/svg" xmlns:xlink="http://www.w3.org/1999/xlink" x="0px" y="0px" viewBox="0 0 512 512" style="width: 512px; height: 512px; opacity: 1;" xml:space="preserve">
<style type="text/css">
	.st0{fill:#4B4B4B;}
</style>
<g>
	<path class="st0" d="M406.747,62.444C368.225,23.89,314.827-0.015,256,0c-58.827-0.015-112.224,23.89-150.746,62.444
		C66.7,100.974,42.802,154.372,42.802,213.19V512h426.396v-16.782V213.19C469.198,154.372,445.3,100.974,406.747,62.444z
		 M435.618,478.42H76.381V213.19c0-49.647,20.085-94.446,52.613-127.005C161.554,53.656,206.353,33.588,256,33.572
		c49.648,0.016,94.446,20.085,127.006,52.614c32.544,32.559,52.613,77.358,52.613,127.005V478.42z" style="fill: rgb(220, 159, 149);"></path>
	<path class="st0" d="M167.878,251.807c-13.652-0.008-26.095,5.562-35.024,14.507c-8.944,8.92-14.515,21.379-14.515,35.015
		c0,13.635,5.571,26.086,14.515,35.014c8.928,8.944,21.371,14.507,35.024,14.507c13.62,0,26.079-5.563,35.007-14.507
		c8.944-8.928,14.514-21.379,14.499-35.014c0.016-13.636-5.554-26.095-14.499-35.015
		C193.957,257.369,181.498,251.799,167.878,251.807z M186.268,319.718c-4.755,4.731-11.172,7.619-18.39,7.626
		c-7.234-0.007-13.668-2.895-18.407-7.626c-4.722-4.738-7.61-11.164-7.626-18.39c0.016-7.226,2.904-13.652,7.626-18.398
		c4.739-4.731,11.173-7.618,18.407-7.626c7.218,0.008,13.635,2.895,18.39,7.626c4.723,4.746,7.61,11.172,7.626,18.398
		C193.878,308.554,190.991,314.98,186.268,319.718z" style="fill: rgb(220, 159, 149);"></path>
</g>
</svg>
