<!--?xml version="1.0" encoding="utf-8"?-->
<!-- Generator: Adobe Illustrator 18.0.0, SVG Export Plug-In . SVG Version: 6.00 Build 0)  -->

<svg version="1.1" id="_x32_" xmlns="http://www.w3.org/2000/svg" xmlns:xlink="http://www.w3.org/1999/xlink" x="0px" y="0px" viewBox="0 0 512 512" style="width: 512px; height: 512px; opacity: 1;" xml:space="preserve">
<style type="text/css">
	.st0{fill:#4B4B4B;}
</style>
<g>
	<path class="st0" d="M0,47.7v416.6h512V47.7H0z M50.881,413.415V98.585h410.238v314.83H50.881z" style="fill: rgb(220, 159, 149);"></path>
	<rect x="238.51" y="159.004" class="st0" width="178.086" height="34.985" style="fill: rgb(220, 159, 149);"></rect>
	<rect x="238.51" y="238.508" class="st0" width="178.086" height="34.985" style="fill: rgb(220, 159, 149);"></rect>
	<rect x="95.404" y="318.011" class="st0" width="321.192" height="34.984" style="fill: rgb(220, 159, 149);"></rect>
	<path class="st0" d="M152.646,204.463c19.107,0,34.652-15.548,34.652-34.655s-15.546-34.654-34.652-34.654
		c-19.106,0-34.649,15.547-34.649,34.654S133.54,204.463,152.646,204.463z" style="fill: rgb(220, 159, 149);"></path>
	<path class="st0" d="M191.295,247.926c0-13.222-9.276-29.142-21.118-36.242l-0.376-0.229h-34.307l-0.376,0.229
		c-11.842,7.1-21.118,23.02-21.118,36.242v25.567h77.296V247.926z" style="fill: rgb(220, 159, 149);"></path>
</g>
</svg>
