<!--?xml version="1.0" encoding="utf-8"?-->
<!-- Generator: Adobe Illustrator 18.1.1, SVG Export Plug-In . SVG Version: 6.00 Build 0)  -->

<svg version="1.1" id="_x32_" xmlns="http://www.w3.org/2000/svg" xmlns:xlink="http://www.w3.org/1999/xlink" x="0px" y="0px" viewBox="0 0 512 512" style="width: 512px; height: 512px; opacity: 1;" xml:space="preserve">
<style type="text/css">
	.st0{fill:#4B4B4B;}
</style>
<g>
	<path class="st0" d="M326.344,219.957c0-7.844-6.366-14.201-14.219-14.201c-7.834,0-14.201,6.357-14.201,14.201
		c0,7.853,6.366,14.21,14.201,14.21C319.978,234.166,326.344,227.81,326.344,219.957z" style="fill: rgb(102, 75, 79);"></path>
	<path class="st0" d="M269.657,262.482c0-7.844-6.366-14.22-14.22-14.22c-7.834,0-14.22,6.376-14.22,14.22
		c0,7.843,6.386,14.21,14.22,14.21C263.29,276.692,269.657,270.325,269.657,262.482z" style="fill: rgb(102, 75, 79);"></path>
	<path class="st0" d="M232.145,341.49c0,7.844,6.366,14.21,14.22,14.21c7.834,0,14.22-6.367,14.22-14.21
		c0-7.844-6.386-14.21-14.22-14.21C238.511,327.279,232.145,333.646,232.145,341.49z" style="fill: rgb(102, 75, 79);"></path>
	<path class="st0" d="M321.999,319.217c7.853,0,14.219-6.357,14.219-14.211c0-7.843-6.366-14.2-14.219-14.2
		c-7.834,0-14.2,6.357-14.2,14.2C307.798,312.86,314.164,319.217,321.999,319.217z" style="fill: rgb(102, 75, 79);"></path>
	<path class="st0" d="M392.715,414.523c-39.761-29.822-59.642-44.737-99.422-44.737c-39.762,0-59.642,14.915-99.404,44.737
		c-39.742,29.83-119.284,89.473-119.284,89.473H512C512,503.995,432.458,444.353,392.715,414.523z" style="fill: rgb(88, 67, 56);"></path>
</g>
</svg>
