<!--?xml version="1.0" encoding="utf-8"?-->
<!-- Generator: Adobe Illustrator 15.1.0, SVG Export Plug-In . SVG Version: 6.00 Build 0)  -->

<svg version="1.1" id="_x32_" xmlns="http://www.w3.org/2000/svg" xmlns:xlink="http://www.w3.org/1999/xlink" x="0px" y="0px" width="512px" height="512px" viewBox="0 0 512 512" style="width: 512px; height: 512px; opacity: 1;" xml:space="preserve">
<style type="text/css">

	.st0{fill:#4B4B4B;}

</style>
<g>
	<path class="st0" d="M285.273,463.258c0-41.078-8.906-172.296,0-195.5c8.938-23.219,45.703-33.906,79.625-42.844
		c33.906-8.922,135.672-48.203,146.391-108.891S409.523,14.258,329.195,89.243c-80.344,74.953-64.266,153.516-73.203,153.516
		c-8.922,0,7.156-78.563-73.188-153.516C102.461,14.258-10.008,55.336,0.711,116.024c10.703,60.688,112.469,99.969,146.375,108.891
		c33.922,8.938,70.688,17.844,79.625,41.063c8.922,23.203,0,156.203,0,197.281H285.273z" style="fill: rgb(74, 105, 55);"></path>
</g>
</svg>
