<!--?xml version="1.0" encoding="utf-8"?-->
<!-- Generator: Adobe Illustrator 22.1.0, SVG Export Plug-In . SVG Version: 6.00 Build 0)  -->
<svg version="1.1" id="_x35_" xmlns="http://www.w3.org/2000/svg" x="0px" y="0px" viewBox="0 0 720 536" style="enable-background:new 0 0 720 536;"
  xml:space="preserve">
<style type="text/css">
	.st0{fill:#eb7a83;}
	.st1{fill:#E2CCBA;}
	.st2{fill:#CEB8A6;}
	.st3{fill:#e06776;}
	.st4{fill:#cf4c55;}
	.st5{fill:#D3592C;}
	.st6{fill:#FB8154;}
	.st7{fill:#ed9198;}
	.st8{fill:#EE9261;}
	.st9{fill:#F89C6B;}
	.st10{fill:#FFB07F;}
	.st11{fill:#F6E0CE;}
	.st12{fill:#85b36f;}
	.st13{fill:#4a9161;}
	.st14{fill:#3D9359;}
	.st15{fill:#4e614e;}
	.st16{fill:#627962;}
	.st17{fill:#FAC697;}
	.st18{fill:#FF9733;}
	.st19{fill:#FFA13D;}
	.st20{fill:#FFAB47;}
	.st21{fill:#59678D;}
	.st22{fill:#FFFEEC;}
	.st23{fill:#6A84A3;}
	.st24{fill:#99B1BF;}
</style>
<g>
	<g>
		<g>
			<polyline class="st0" points="29.112,414.239 310.891,331.237 696.588,444.849 414.809,527.851 			" style="opacity: 1;"></polyline>
			<path class="st1" d="M397.409,442.574l14.177-22.384l261.267-76.959c-4.585,14.79-5.582,40.537-5.523,51.067l0.001,0.188
				l-0.002,0.188c-0.28,21.996,2.427,37.699,8.266,47.883l-269.884,79.498l-5.559-9.177
				C388.179,493.11,387.013,463.216,397.409,442.574z" style="opacity: 1;"></path>
			<path class="st2" d="M453.517,444.543v52.079l14.454-11.49l2.07-33.341C470.042,451.791,459.392,443.699,453.517,444.543z" style="opacity: 1;"></path>
			<path class="st3" d="M29.112,422.388C9.828,410.708,0.875,391.45,1.7,365.743c0,0-0.825-51.21,27.412-66.171l20.347,5.994
				l44.292,13.047l321.057,94.572c-28.237,14.961-27.412,66.171-27.412,66.171c-0.825,25.706,8.128,44.965,27.412,56.645
				L67.856,433.8L29.112,422.388z" style="opacity: 1;"></path>
			<path class="st4" d="M696.588,444.849l-280.551,82.64c-14.717-10.184-21.539-25.886-20.832-47.883l0.006-0.188l-0.003-0.188
				c-0.18-12.776,3.558-47.955,22.613-58.783l278.767-82.114v-8.15l-281.779,83.002c-28.237,14.961-27.412,66.171-27.412,66.171
				c-0.825,25.706,8.128,44.965,27.412,56.645l281.779-83.002V444.849z" style="opacity: 1;"></path>
			<polyline class="st0" points="29.112,299.572 310.891,216.57 696.588,330.182 414.809,413.184 			" style="opacity: 1;"></polyline>
		</g>
		<g>
			<path class="st2" d="M472.446,437.573c-28.689,8.451-53.677,16.288-67.332,21.025c14.043-3.422,39.289-10.381,67.977-18.832
				c28.689-8.451,53.676-16.288,67.332-21.025C526.38,422.163,501.134,429.122,472.446,437.573z" style="opacity: 1;"></path>
			<path class="st2" d="M554.726,462.924c-22.641,6.669-42.36,12.855-53.137,16.593c11.082-2.701,31.006-8.193,53.646-14.862
				c22.641-6.669,42.36-12.855,53.137-16.593C597.29,450.763,577.366,456.255,554.726,462.924z" style="opacity: 1;"></path>
			<path class="st2" d="M612.075,435.569c-22.641,6.669-42.36,12.855-53.137,16.593c11.082-2.701,31.006-8.193,53.646-14.862
				c22.641-6.669,42.36-12.855,53.137-16.593C654.639,423.408,634.716,428.9,612.075,435.569z" style="opacity: 1;"></path>
			<path class="st2" d="M579.608,427.197c-31.187,9.171-58.35,17.677-73.195,22.819c15.265-3.713,42.709-11.265,73.895-20.436
				c31.187-9.172,58.35-17.678,73.196-22.819C638.239,410.475,610.795,418.026,579.608,427.197z" style="opacity: 1;"></path>
			<path class="st2" d="M604.904,400.822c-19.585,5.759-36.643,11.101-45.966,14.33c9.586-2.332,26.821-7.074,46.405-12.833
				c19.585-5.759,36.643-11.101,45.966-14.33C641.723,390.32,624.489,395.062,604.904,400.822z" style="opacity: 1;"></path>
			<path class="st2" d="M500.925,408.867c-19.585,5.759-36.643,11.101-45.966,14.33c9.587-2.332,26.821-7.074,46.405-12.833
				c19.585-5.759,36.643-11.101,45.966-14.33C537.744,398.366,520.51,403.108,500.925,408.867z" style="opacity: 1;"></path>
			<path class="st2" d="M604.904,386.876c-19.585,5.759-36.643,11.101-45.966,14.33c9.586-2.332,26.821-7.074,46.405-12.833
				c19.585-5.759,36.643-11.101,45.966-14.33C641.723,376.374,624.489,381.116,604.904,386.876z" style="opacity: 1;"></path>
		</g>
		<g>
			<path class="st5" d="M486.994,437.596l-2.477-1.735l-30.982,6.986l-0.018,1.696c3.611,2.53,7.13,5.043,7.13,12.242v36.391
				l1.127,0.792l17.38-18.416l13.602-26.881C492.756,444.26,490.605,440.126,486.994,437.596z" style="opacity: 1;"></path>
			<path class="st6" d="M488.121,436.468l-2.477-1.735l-32.109,8.114l2.477,1.735c3.611,2.53,5.762,6.664,5.762,11.075v38.31
				l16.478-11.543l15.631,3.429v-38.31C493.883,443.132,491.732,438.998,488.121,436.468z" style="opacity: 1;"></path>
		</g>
		<path class="st7" d="M69.807,311.559C41.57,326.52,42.395,377.73,42.395,377.73c-0.825,25.706,8.128,44.965,27.412,56.645
			l-20.347-5.994c-19.284-11.68-28.237-30.938-27.412-56.645c0,0-0.825-51.21,27.412-66.171L69.807,311.559z" style="opacity: 1;"></path>
		<path class="st7" d="M114.098,324.606c-28.237,14.961-27.412,66.171-27.412,66.171c-0.825,25.706,8.128,44.965,27.412,56.645
			l-20.347-5.994c-19.284-11.68-28.237-30.938-27.412-56.645c0,0-0.825-51.21,27.412-66.171L114.098,324.606z" style="opacity: 1;"></path>
	</g>
	<polygon class="st8" points="672.296,311.803 672.296,244.719 691.328,239.113 691.328,239.113 699.14,236.812 699.14,228.663 
		352.187,330.862 352.187,414.244 699.14,312.045 699.14,303.896 691.549,306.132 	" style="opacity: 1;"></polygon>
	<g>
		<polygon class="st9" points="352.187,201.696 5.234,303.896 352.187,406.095 699.14,303.896 		" style="opacity: 1;"></polygon>
		<path class="st8" d="M5.234,312.045l346.953,102.199v-83.382L5.234,228.663l0,0c-6.953,27.258-6.978,55.823-0.073,83.093
			L5.234,312.045z" style="opacity: 1;"></path>
		<polygon class="st10" points="352.187,126.463 5.234,228.663 352.187,330.862 699.14,228.663 		" style="opacity: 1;"></polygon>
		<polygon class="st1" points="348.281,341.934 679.61,244.337 679.61,303.271 348.281,400.868 		" style="opacity: 1;"></polygon>
		<path class="st11" d="M15.094,302.725c-4.07-19.365-4.428-39.71-1.053-59.243l334.24,98.454v58.933L15.094,302.725z" style="opacity: 1;"></path>
	</g>
	<g>
		<g>
			<g>
				<polyline class="st12" points="694.201,201.906 370.598,140.248 5.868,247.684 272.329,326.174 				" style="opacity: 1;"></polyline>
				<path class="st1" d="M288.783,245.532l-13.406-21.167L28.312,151.59c4.336,13.986,5.279,38.333,5.223,48.291l-0.001,0.178
					l0.002,0.178c0.265,20.8-2.295,35.649-7.817,45.28l255.213,75.176l5.256-8.678C297.511,293.321,298.614,265.052,288.783,245.532
					z" style="opacity: 1;"></path>
				<path class="st13" d="M694.029,209.612c18.236-11.045,26.702-29.256,25.922-53.565c0,0,0.78-48.426-25.922-62.574l-19.241,5.668
					l-41.884,12.337l-272.842,80.369l-72.217,21.273l-15.687,4.621c26.702,14.148,25.922,62.574,25.922,62.574
					c0.78,24.309-7.686,42.521-25.922,53.565l385.234-113.475L694.029,209.612z" style="opacity: 1; stroke: none; stroke-width: 7px;"></path>
				<path class="st14" d="M5.868,247.684l265.299,78.147c13.917-9.63,20.368-24.479,19.7-45.28l-0.005-0.178l0.003-0.178
					c0.167-11.822-3.82-45.607-21.384-55.587L5.868,146.957v-7.707l266.461,78.49c26.702,14.148,25.922,62.574,25.922,62.574
					c0.78,24.309-7.686,42.521-25.922,53.565L5.868,255.39V247.684z" style="opacity: 1; stroke: none; stroke-width: 7px;"></path>
				<polygon class="st12" points="694.028,93.475 360.06,191.846 287.848,213.12 272.156,217.743 5.7,139.252 21.382,134.63 
					93.604,113.355 370.43,31.816 427.572,14.984 				" style="opacity: 1;"></polygon>
			</g>
			<g>
				<path class="st2" d="M217.826,240.803c27.13,7.992,50.759,15.403,63.672,19.882c-13.279-3.236-37.153-9.817-64.282-17.808
					c-27.129-7.992-50.758-15.403-63.671-19.882C166.823,226.231,190.697,232.812,217.826,240.803z" style="opacity: 1;"></path>
				<path class="st2" d="M140.018,264.776c21.41,6.307,40.057,12.156,50.248,15.691c-10.48-2.554-29.32-7.747-50.73-14.054
					c-21.41-6.307-40.057-12.156-50.248-15.691C99.768,253.276,118.609,258.47,140.018,264.776z" style="opacity: 1;"></path>
				<path class="st2" d="M85.787,238.908c21.41,6.307,40.057,12.156,50.248,15.691c-10.48-2.554-29.32-7.747-50.73-14.054
					c-21.41-6.307-40.057-12.156-50.248-15.691C45.537,227.408,64.377,232.601,85.787,238.908z" style="opacity: 1;"></path>
				<path class="st2" d="M116.489,230.992c29.491,8.672,55.178,16.716,69.216,21.578c-14.435-3.511-40.387-10.653-69.878-19.325
					c-29.492-8.673-55.178-16.717-69.217-21.578C61.045,215.178,86.997,222.319,116.489,230.992z" style="opacity: 1;"></path>
				<path class="st2" d="M92.568,206.05c18.52,5.446,34.651,10.498,43.467,13.551c-9.065-2.205-25.363-6.69-43.883-12.136
					c-18.52-5.446-34.651-10.498-43.467-13.551C57.751,196.119,74.048,200.604,92.568,206.05z" style="opacity: 1;"></path>
				<path class="st2" d="M190.894,213.658c18.52,5.446,34.651,10.498,43.467,13.551c-9.065-2.205-25.363-6.689-43.883-12.136
					c-18.52-5.446-34.651-10.498-43.467-13.551C156.077,203.727,172.374,208.212,190.894,213.658z" style="opacity: 1;"></path>
				<path class="st2" d="M92.568,192.862c18.52,5.446,34.651,10.498,43.467,13.551c-9.065-2.205-25.363-6.69-43.883-12.136
					c-18.52-5.446-34.651-10.498-43.467-13.551C57.751,182.931,74.048,187.416,92.568,192.862z" style="opacity: 1;"></path>
			</g>
			<path class="st12" d="M655.719,104.808c26.702,14.148,25.922,62.574,25.922,62.574c0.78,24.309-7.686,42.521-25.922,53.565
				l19.241-5.668c18.236-11.045,26.702-29.257,25.922-53.565c0,0,0.78-48.426-25.922-62.574L655.719,104.808z" style="opacity: 1;"></path>
			<path class="st15" d="M288.016,213.119c26.702,14.148,25.922,62.574,25.922,62.574c0.78,24.309-7.686,42.521-25.922,53.565
				l72.217-21.273c18.236-11.045,26.702-29.256,25.922-53.565c0,0,0.78-48.426-25.922-62.574L288.016,213.119z" style="opacity: 1; stroke: none; stroke-width: 7px;"></path>
		</g>
		<polygon class="st16" points="360.232,191.846 288.02,213.12 21.555,134.63 93.776,113.355 		" style="opacity: 1;"></polygon>
	</g>
	<g>
		<path class="st17" d="M558.938,135.574l-9.315,2.382l-22.786-2.807c0,0-15.497-26.749-16.827-27.504
			c-1.323-0.753,6.758-7.746,6.758-7.746l26.691,7.771l13.289,19.599L558.938,135.574z" style="opacity: 1;"></path>
		<polygon class="st18" points="525.12,122.023 352.07,14.35 353.789,27.477 526.839,135.149 		" style="opacity: 1; stroke: none; stroke-width: 7px;"></polygon>
		<polygon class="st19" points="532.551,111.418 359.502,3.746 352.07,14.35 525.12,122.023 		" style="opacity: 1; stroke: none; stroke-width: 7px;"></polygon>
		<polygon class="st20" points="543.459,107.672 370.409,0 359.502,3.746 532.551,111.418 		" style="opacity: 1;"></polygon>
		<path class="st21" d="M565.308,139.89l-15.684-1.934c-0.951-4.169,2.034-10.178,7.125-10.687L565.308,139.89z" style="opacity: 1;"></path>
	</g>
	<g>
		<path class="st22" d="M383.042,116.694c-4.053,1.28-10.644,2.287-10.644,2.287l-19.003-9.704l-35.369-18.069
			c7.832-2.56,12.069-3.801,18.251-5.336c18.71-4.632,42.204,3.049,47.907,6.469c1.133,0.684,2.051,1.994,2.744,3.684
			C389.642,102.622,388.803,114.876,383.042,116.694z" style="opacity: 1;"></path>
		<path class="st11" d="M383.042,116.694c-4.053,1.28-10.644,2.287-10.644,2.287l-19.003-9.704l14.813-10.085l18.72-3.166
			C389.642,102.622,388.803,114.876,383.042,116.694z" style="opacity: 1;"></path>
		<polygon class="st23" points="313.353,130.129 313.353,106.197 373.138,96.225 373.138,120.157 		" style="opacity: 1; stroke: none; stroke-width: 7px;"></polygon>
		<polygon class="st23" points="313.353,130.129 271.02,120.524 271.02,96.47 313.353,106.197 		" style="opacity: 1; stroke: none; stroke-width: 7px;"></polygon>
		<polygon class="st11" points="273.949,118.183 273.949,100.151 310.423,108.532 310.423,126.458 		" style="opacity: 1;"></polygon>
		<polygon class="st24" points="330.805,86.498 271.02,96.47 313.353,106.197 373.138,96.225 		" style="opacity: 1;"></polygon>
	</g>
</g>
</svg>
