<!--?xml version="1.0" encoding="utf-8"?-->
<!-- Generator: Adobe Illustrator 18.1.1, SVG Export Plug-In . SVG Version: 6.00 Build 0)  -->

<svg version="1.1" id="_x32_" xmlns="http://www.w3.org/2000/svg" xmlns:xlink="http://www.w3.org/1999/xlink" x="0px" y="0px" viewBox="0 0 512 512" style="width: 512px; height: 512px; opacity: 1;" xml:space="preserve">
<style type="text/css">
	.st0{fill:#4B4B4B;}
</style>
<g>
	<path class="st0" d="M511.622,141.467c-1.123-13.694-4.718-26.528-10.88-37.746c-5.022-9.138-11.8-17.196-20.13-23.433
		c-8.321-6.256-18.185-10.635-28.917-12.724c-9.319-1.802-18.254-2.134-26.64-0.998c-8.38,1.109-16.188,3.733-23.068,7.512
		c-10.972,6.034-19.455,14.905-25.511,24.838c-2.292,3.752-4.265,7.67-5.938,11.68l-22.208-30.373l-124.175,68.304l44.45,112.315
		l-72.54-37.848l-44.159,34.697l23.655,1.571l118.528,67.158l15.145,38.513l176.317-96.985l-11.93-16.318
		c17.048-22.057,28.206-44.88,33.894-66.854C511.386,169.779,512.739,155.179,511.622,141.467z M467.799,193.988
		c-3.885,9.212-9.06,18.72-15.643,28.275l-54.384-74.393c0.051-1.636,0.028-3.253,0.186-4.87c0.836-8.732,3.257-17.113,6.879-23.803
		c1.811-3.336,3.909-6.265,6.223-8.714c2.32-2.448,4.846-4.426,7.66-5.987c3.156-1.728,6.685-2.948,10.968-3.53
		c4.273-0.582,9.337-0.481,15.385,0.694c5.798,1.136,10.566,3.317,14.706,6.403c4.14,3.104,7.683,7.189,10.543,12.392
		c3.497,6.348,5.923,14.396,6.694,23.83C478.181,158.432,475.561,175.628,467.799,193.988z" style="fill: rgb(98, 121, 98);"></path>
	<path class="st0" d="M106.853,236.668c2.49,0,4.93-1.007,6.691-2.771c1.765-1.766,2.771-4.196,2.771-6.691
		c0-2.495-1.006-4.925-2.771-6.69c-1.761-1.764-4.2-2.772-6.691-2.772c-2.489,0-4.93,1.008-6.69,2.772
		c-1.764,1.765-2.772,4.195-2.772,6.69c0,2.495,1.008,4.925,2.772,6.691C101.924,235.662,104.364,236.668,106.853,236.668z" style="fill: rgb(159, 208, 222);"></path>
	<path class="st0" d="M22.001,362.003c-5.032-1.395-10.252,1.534-11.652,6.579v-0.008c-1.404,5.045,1.534,10.256,6.574,11.661
		c5.032,1.404,10.248-1.543,11.653-6.579C29.98,368.628,27.032,363.408,22.001,362.003z" style="fill: rgb(159, 208, 222);"></path>
	<path class="st0" d="M44.528,305.527c-4.74-2.2-10.368-0.149-12.571,4.601c-2.199,4.731-0.143,10.368,4.598,12.566
		c4.74,2.199,10.363,0.139,12.566-4.601C51.32,313.353,49.264,307.726,44.528,305.527z" style="fill: rgb(159, 208, 222);"></path>
	<path class="st0" d="M68.641,278.407c4.384,2.845,10.242,1.598,13.089-2.791c2.841-4.388,1.589-10.248-2.795-13.084
		c-4.384-2.846-10.247-1.598-13.089,2.79C63.005,269.712,64.256,275.57,68.641,278.407z" style="fill: rgb(159, 208, 222);"></path>
	<path class="st0" d="M10.132,421.611c-2.481-0.175-4.985,0.657-6.87,2.292c-1.885,1.636-3.058,3.982-3.239,6.478
		c-0.175,2.486,0.657,4.98,2.292,6.866c1.631,1.885,3.992,3.068,6.478,3.242c2.486,0.176,4.989-0.656,6.869-2.292
		c1.886-1.635,3.064-3.991,3.239-6.477c0.176-2.486-0.656-4.99-2.292-6.875C14.978,422.96,12.618,421.787,10.132,421.611z" style="fill: rgb(159, 208, 222);"></path>
	<path class="st0" d="M69.999,354.611c-5.202-0.444-9.771,3.428-10.206,8.648c-0.43,5.212,3.447,9.776,8.658,10.202
		c5.203,0.434,9.777-3.438,10.206-8.649C79.087,359.6,75.211,355.036,69.999,354.611z" style="fill: rgb(159, 208, 222);"></path>
	<path class="st0" d="M82.339,305.545c-5.077-1.257-10.206,1.839-11.458,6.912c-1.252,5.063,1.843,10.201,6.912,11.467
		c5.073,1.247,10.201-1.857,11.462-6.92C90.508,311.93,87.413,306.802,82.339,305.545z" style="fill: rgb(159, 208, 222);"></path>
	<path class="st0" d="M59.036,410.912c-2.472-0.324-5.022,0.351-6.999,1.866c-1.982,1.506-3.303,3.788-3.632,6.265
		c-0.333,2.477,0.346,5.018,1.862,6.995c1.51,1.978,3.797,3.308,6.265,3.641c2.472,0.323,5.022-0.352,6.999-1.867
		c1.982-1.516,3.299-3.798,3.627-6.265c0.333-2.476-0.346-5.036-1.861-6.995C63.785,412.566,61.498,411.244,59.036,410.912z" style="fill: rgb(159, 208, 222);"></path>
	<path class="st0" d="M149.969,232.732c-1.761-1.765-4.2-2.772-6.69-2.772c-2.49,0-4.93,1.008-6.691,2.772
		c-1.764,1.764-2.771,4.195-2.771,6.69c0,2.495,1.007,4.925,2.771,6.69c1.761,1.765,4.2,2.772,6.691,2.772
		c2.489,0,4.929-1.007,6.69-2.772c1.765-1.766,2.772-4.195,2.772-6.69C152.741,236.928,151.734,234.497,149.969,232.732z" style="fill: rgb(159, 208, 222);"></path>
	<path class="st0" d="M117.859,387.063c-0.379-5.212-4.916-9.13-10.123-8.751c-5.216,0.389-9.134,4.916-8.75,10.128
		c0.379,5.211,4.911,9.129,10.122,8.75C114.32,396.81,118.238,392.274,117.859,387.063z" style="fill: rgb(159, 208, 222);"></path>
	<path class="st0" d="M109.626,347.782c5.202,0.499,9.818-3.327,10.308-8.529c0.489-5.202-3.327-9.822-8.529-10.312
		c-5.207-0.49-9.822,3.336-10.312,8.538C100.603,342.672,104.424,347.292,109.626,347.782z" style="fill: rgb(159, 208, 222);"></path>
	<path class="st0" d="M121.629,279.174c-5.04-1.377-10.244,1.59-11.624,6.625c-1.382,5.045,1.584,10.247,6.624,11.634
		c5.041,1.377,10.244-1.59,11.625-6.625C129.636,285.762,126.67,280.56,121.629,279.174z" style="fill: rgb(159, 208, 222);"></path>
	<path class="st0" d="M114.837,427.193c-2.486-0.176-4.99,0.656-6.87,2.292c-1.885,1.635-3.063,3.991-3.239,6.476
		c-0.175,2.486,0.656,4.99,2.292,6.875c1.631,1.885,3.992,3.058,6.478,3.234c2.486,0.175,4.989-0.656,6.87-2.292
		c1.88-1.636,3.063-3.982,3.239-6.478c0.175-2.486-0.662-4.98-2.292-6.866C119.684,428.551,117.323,427.378,114.837,427.193z" style="fill: rgb(159, 208, 222);"></path>
</g>
</svg>
